<svg xmlns="http://www.w3.org/2000/svg" xmlns:xlink="http://www.w3.org/1999/xlink" width="150" height="150" viewBox="0 0 150 150">
  <defs>
    <clipPath id="clip-Aster_Doctor">
      <rect width="150" height="150"/>
    </clipPath>
  </defs>
  <g id="Aster_Doctor" data-name="Aster Doctor" clip-path="url(#clip-Aster_Doctor)">
    <rect width="150" height="150" fill="#d6f1ff"/>
    <g id="Group_3555" data-name="Group 3555" transform="translate(-29.342 -23.725)">
      <path id="Path_23835" data-name="Path 23835" d="M179.863,247.935l13.188-12.387-5.236-.973c-2.527-.508-4.345-3.439-4.345-6.017V217.072H158.98v11.487c0,2.578-1.818,5.509-4.345,6.017l-5.236.973,13.188,12.387A12.617,12.617,0,0,0,179.863,247.935Z" transform="translate(-67.037 -114.801)" fill="#ffe7cf"/>
      <path id="Path_23836" data-name="Path 23836" d="M234.669,217.072V234.49c0,2.578,1.818,5.509,4.345,6.017l4.513,1.292,6.654-6.25-5.236-.973c-2.527-.508-4.345-3.439-4.345-6.017V217.072Z" transform="translate(-124.167 -114.801)" fill="#f4d5ba"/>
      <path id="Path_23837" data-name="Path 23837" d="M210.52,390.509Z" transform="translate(-107.988 -231.003)" fill="#fff" stroke="#000" stroke-linecap="round" stroke-linejoin="round" stroke-width="11.022"/>
      <path id="Path_23838" data-name="Path 23838" d="M119.475,266.9l-15.022,3.138L88.9,266.9a3.224,3.224,0,0,0-2.861-.5l-25.682,7.749a7.609,7.609,0,0,0-5.3,6L49.4,313.276a3.732,3.732,0,0,0,3.679,4.361H155.3a3.732,3.732,0,0,0,3.679-4.361l-5.658-33.125a7.61,7.61,0,0,0-5.3-6L122.336,266.4A3.224,3.224,0,0,0,119.475,266.9Z" transform="translate(0 -147.757)" fill="#44c4a1"/>
      <g id="Group_3552" data-name="Group 3552" transform="translate(95.425 130.571)">
        <path id="Path_23841" data-name="Path 23841" d="M200.493,302.827l-7.41,3.148,4.332,5.035h6.156l4.332-5.035Z" transform="translate(-191.731 -302.827)" fill="#44c4a1"/>
        <path id="Path_23842" data-name="Path 23842" d="M200.824,327.623h-6.156l-5.685,31.126h17.525Z" transform="translate(-188.984 -319.44)" fill="#44c4a1"/>
      </g>
      <path id="Path_23843" data-name="Path 23843" d="M104.188,312.134S87.02,266.379,86.04,266.674l-25.682,7.749a7.609,7.609,0,0,0-5.3,6L49.4,313.552a3.732,3.732,0,0,0,3.679,4.361H155.3a3.732,3.732,0,0,0,3.679-4.361l-5.658-33.125a7.61,7.61,0,0,0-5.3-6l-25.682-7.749C121.356,266.379,104.188,312.134,104.188,312.134Z" transform="translate(0 -148.033)" fill="#fff"/>
      <path id="Path_23844" data-name="Path 23844" d="M299.624,313.552l-5.658-33.125a7.61,7.61,0,0,0-5.3-6l-25.682-7.749c-.266-.081-1.729,3.242-3.718,8.124l18.626,5.62a3.877,3.877,0,0,1,2.7,3.059l5.882,34.436h9.471A3.733,3.733,0,0,0,299.624,313.552Z" transform="translate(-140.645 -148.033)" fill="#fff"/>
      <g id="Group_3553" data-name="Group 3553" transform="translate(75.014 103.867)">
        <path id="Path_23845" data-name="Path 23845" d="M265.168,262.051a1.873,1.873,0,0,1-1.873-1.873V238.919a13.26,13.26,0,0,0-12.644-13.268,1.873,1.873,0,1,1,.177-3.742,17,17,0,0,1,16.213,17.009v21.259A1.873,1.873,0,0,1,265.168,262.051Z" transform="translate(-208.694 -221.908)" fill="#44798c"/>
        <path id="Path_23846" data-name="Path 23846" d="M129.006,248.194a1.873,1.873,0,0,1-1.873-1.873v-7.4A17.009,17.009,0,0,1,143.3,221.916a1.873,1.873,0,1,1,.187,3.741,13.267,13.267,0,0,0-12.608,13.266v7.4A1.873,1.873,0,0,1,129.006,248.194Z" transform="translate(-127.133 -221.911)" fill="#44798c"/>
      </g>
      <circle id="Ellipse_421" data-name="Ellipse 421" cx="7.818" cy="7.818" r="7.818" transform="translate(123.65 135.551)" fill="#1785b8"/>
      <circle id="Ellipse_422" data-name="Ellipse 422" cx="3.444" cy="3.444" r="3.444" transform="translate(128.024 139.924)" fill="#e1effb"/>
      <path id="Path_23847" data-name="Path 23847" d="M116.813,324.657h-2.335a1.873,1.873,0,1,1,0-3.746h2.335a1.015,1.015,0,0,0,1.012-1.093l-1.365-17.511a5.747,5.747,0,0,0-.439-1.8,5.612,5.612,0,0,0-5.23-3.354h-.043l-.309,0a5.664,5.664,0,0,0-5.3,3.61,5.762,5.762,0,0,0-.337,1.54l-1.364,17.511a1.014,1.014,0,0,0,1.011,1.093h2.335a1.873,1.873,0,0,1,0,3.746h-2.335a4.761,4.761,0,0,1-4.746-5.131l1.364-17.51a9.3,9.3,0,0,1,9.346-8.6l.309,0h.07a9.346,9.346,0,0,1,8.678,5.639,9.476,9.476,0,0,1,.724,2.968l1.365,17.51a4.761,4.761,0,0,1-4.746,5.131Z" transform="translate(-33.731 -165.946)" fill="#2c5871"/>
      <g id="Group_3554" data-name="Group 3554" transform="translate(74.623 78.366)">
        <path id="Path_23848" data-name="Path 23848" d="M133.9,151.643v-7.008h-4.275a3.68,3.68,0,0,0-3.681,3.681v2.847a3.68,3.68,0,0,0,3.681,3.681H133.9Z" transform="translate(-125.948 -144.635)" fill="#f4d5ba"/>
        <path id="Path_23849" data-name="Path 23849" d="M285.294,144.635h-4.275v10.208h4.275a3.68,3.68,0,0,0,3.68-3.681v-2.847A3.68,3.68,0,0,0,285.294,144.635Z" transform="translate(-229.844 -144.635)" fill="#f4d5ba"/>
      </g>
      <path id="Path_23850" data-name="Path 23850" d="M184.63,66.129c-3.687-3.174-8.869-2.968-15.714-3.044-6.845.077-12.027-.13-15.713,3.044a21.407,21.407,0,0,0-7.25,16.266v18.037c0,6.205,7.8,22.664,22.963,22.664s22.963-16.458,22.963-22.664V82.4A21.407,21.407,0,0,0,184.63,66.129Z" transform="translate(-64.728 -11.631)" fill="#ffe7cf"/>
      <path id="Path_23851" data-name="Path 23851" d="M218.7,67.416A11.243,11.243,0,0,0,213.59,65c0,.009,0,.017,0,.027v36.687c0,5.3-5.685,18.064-16.782,21.688a19.809,19.809,0,0,0,6.18.976c15.164,0,22.963-16.458,22.963-22.664V83.682A21.408,21.408,0,0,0,218.7,67.416Z" transform="translate(-98.801 -12.917)" fill="#f4d5ba"/>
      <path id="Path_23852" data-name="Path 23852" d="M175.171,45.725H147.542A12.872,12.872,0,0,0,134.67,58.6V79.728a8.887,8.887,0,0,1,5.822,2.174.754.754,0,0,0,1.28-.541V64.071a5.689,5.689,0,0,1,5.689-5.689h5.17a5.878,5.878,0,0,1,3.72,1.327l.507.415a7.107,7.107,0,0,0,9,0l.507-.415a5.878,5.878,0,0,1,3.72-1.327h5.17a5.69,5.69,0,0,1,5.69,5.689v17.29a.754.754,0,0,0,1.28.541,8.887,8.887,0,0,1,5.822-2.174V58.6A12.872,12.872,0,0,0,175.171,45.725Z" transform="translate(-57.169)" fill="#3a3a3a"/>
      <path id="Path_23853" data-name="Path 23853" d="M232.3,45.725H219.94A12.87,12.87,0,0,1,232.807,58.4a5.689,5.689,0,0,1,5.263,5.672v17.29a.754.754,0,0,0,1.28.541,8.887,8.887,0,0,1,5.822-2.174V58.6A12.872,12.872,0,0,0,232.3,45.725Z" transform="translate(-114.299)" fill="#3a3a3a"/>
    </g>
  </g>
</svg>
