<svg xmlns="http://www.w3.org/2000/svg" xmlns:xlink="http://www.w3.org/1999/xlink" width="198" height="75" viewBox="0 0 198 75">
  <defs>
    <clipPath id="clip-path">
      <rect id="Rectangle_2390" data-name="Rectangle 2390" width="198" height="75"/>
    </clipPath>
  </defs>
  <g id="Aster_Volunteers_Logo_Reverse" data-name="Aster Volunteers Logo Reverse" clip-path="url(#clip-path)">
    <g id="Group_1" data-name="Group 1" transform="translate(6.744 8.67)">
      <path id="Path_1" data-name="Path 1" d="M363.316,745.443l-6.291,17.864v1.112h3.391l1.515-4.826h6.4l1.573,4.826H374v-1.112l-6.315-17.864Zm-.49,11.252,2.223-6.994h.054l2.276,6.994Z" transform="translate(-357.025 -745.443)" fill="#104c90"/>
      <path id="Path_2" data-name="Path 2" d="M381.928,755.728c-1.954-.245-2.656-.623-2.656-1.356,0-.813.592-1.273,2.143-1.273a5.507,5.507,0,0,1,3.251.948h1.19v-2.875a9.3,9.3,0,0,0-4.47-.974c-3.5,0-5.64,1.6-5.64,4.473,0,2.794,1.652,3.959,4.772,4.335,2.008.246,2.521.654,2.521,1.519,0,.893-.836,1.329-2.44,1.329a5.174,5.174,0,0,1-3.5-1.195h-1.246v2.925a9.562,9.562,0,0,0,4.932,1.169c4.122,0,5.938-1.814,5.938-4.608,0-2.872-1.411-3.985-4.8-4.419" transform="translate(-357.71 -745.617)" fill="#104c90"/>
      <path id="Path_3" data-name="Path 3" d="M393.253,760.178v-7.294h2.876v-2.655h-2.876v-3.8H389.3v3.8h-1.681v2.655H389.3v7.753c0,2.953,1.654,4.039,4.39,4.039a7.764,7.764,0,0,0,2.494-.38v-2.387h-1.086c-1.3,0-1.842-.376-1.842-1.734" transform="translate(-358.145 -745.479)" fill="#104c90"/>
      <path id="Path_4" data-name="Path 4" d="M403.868,750.142c-3.95,0-6.936,2.818-6.936,7.4,0,4.471,2.548,7.238,7.212,7.238a10.376,10.376,0,0,0,5.583-1.38v-2.6h-1.221a6.254,6.254,0,0,1-3.767,1.2c-2.2,0-3.549-.789-3.743-3.633h9.218c0-.139.056-.734.056-1.223,0-4.688-2.225-6.992-6.4-6.992m-2.814,5.828c.3-2.656,1.434-3.332,2.814-3.332,1.541,0,2.419.808,2.5,3.332Z" transform="translate(-358.486 -745.615)" fill="#104c90"/>
      <path id="Path_5" data-name="Path 5" d="M420.628,750.226a5.389,5.389,0,0,0-3.96,1.845c-.137-1.412-.544-1.709-1.217-1.709h-2.687v14.232h3.959V754.318a8.934,8.934,0,0,1,4.094-.84h.674v-3.117a2.945,2.945,0,0,0-.867-.136" transform="translate(-359.066 -745.618)" fill="#104c90"/>
      <path id="Path_6" data-name="Path 6" d="M544.1,774.253a18.286,18.286,0,0,1-4.721,7.129c-.174-.4-.325-.777-.5-1.144-1.324-2.746-2.66-5.485-3.965-8.24a1.17,1.17,0,0,1-.008-.828c.429-1.147.972-2.253,1.349-3.414a3.054,3.054,0,0,0-1.83-4.115.53.53,0,0,0-.466.033,9.171,9.171,0,0,0-2.524,3.646,7.243,7.243,0,0,0-.071,4.688.978.978,0,0,1,.031.527c-.777,2.548-1.488,5.122-2.385,7.628a20.519,20.519,0,0,1-1.957,3.782,2.064,2.064,0,0,1-2.233,1,1.645,1.645,0,0,1-1.179-1.721,16.936,16.936,0,0,1,0-3.521c.347-2.305.867-4.587,1.327-6.877a1.06,1.06,0,0,0-.553-1.377,2.948,2.948,0,0,0-.656-.349c-1.334-.44-2.672-.874-4.016-1.289-.832-.258-1.677-.477-2.521-.716.357-1.92.7-3.775,1.06-5.713-.521-.224-1.024-.473-1.549-.656a2.07,2.07,0,0,0-2.208.49,4.354,4.354,0,0,0-1.312,2.979,4.239,4.239,0,0,0,1.714,3.585.5.5,0,0,1,.2.589c-.173.674-.289,1.362-.449,2.039a28.772,28.772,0,0,1-3.591,9.059,9.061,9.061,0,0,1-3.984,3.709,3.25,3.25,0,0,1-4.209-1.282,5.562,5.562,0,0,1-.743-2.626c.156.048.266.076.372.115a4.23,4.23,0,0,0,4.779-1.119,10.123,10.123,0,0,0,2.493-4.522,8.693,8.693,0,0,0,.289-3.988,2.391,2.391,0,0,0-2.119-2.159,2.133,2.133,0,0,1-.587-.255c-.409-.22-.806-.462-1.219-.674a3.071,3.071,0,0,0-3.091.1,6.324,6.324,0,0,0-1.205.872,13.453,13.453,0,0,0-3.538,6.573,20.573,20.573,0,0,1-1.5,4.922,9.184,9.184,0,0,1-3.546,3.937,3.638,3.638,0,0,1-4.072-.15,5.086,5.086,0,0,1-1.629-3.645c.144.044.236.07.326.1a4.256,4.256,0,0,0,4.828-1.107,10.244,10.244,0,0,0,2.581-4.86,7.531,7.531,0,0,0,.09-4.081,2.324,2.324,0,0,0-1.655-1.707c-.422-.12-.825-.3-1.232-.465a10.874,10.874,0,0,0-2.159-.817,3.6,3.6,0,0,0-2.986,1.221,12.4,12.4,0,0,0-3.312,5.643c-.348,1.136-.476,2.336-.787,3.485a12.54,12.54,0,0,1-2.387,4.769,6.407,6.407,0,0,1-1.768,1.5,1.651,1.651,0,0,1-2.627-1.108,11.531,11.531,0,0,1-.36-2.948,48.531,48.531,0,0,1,1.6-11.112c.078-.315.2-.4.5-.385q1.245.06,2.491.076c.963.013,1.918,0,2.89,0a2.684,2.684,0,0,0-1.591-3.386,10.641,10.641,0,0,0-1.612-.482c-.358-.09-.731-.122-1.075-.176.207-.746.436-1.423.578-2.119.459-2.183-.328-3.446-2.339-3.772a6.288,6.288,0,0,0-.3.609c-.643,1.705-1.27,3.412-1.927,5.113a.786.786,0,0,1-.44.426c-.957.262-1.92.523-2.89.7-.761.141-1,.588-1.093,1.286-.152,1.19.33,1.8,1.541,1.824.522.012,1.046,0,1.6,0-.041.152-.065.248-.091.343a60.121,60.121,0,0,0-1.746,8.417,9.049,9.049,0,0,1-.289,1.961,12.939,12.939,0,0,1-1.268,2.578,6.386,6.386,0,0,1-1.572,1.695,1.6,1.6,0,0,1-2.7-1.029,11.616,11.616,0,0,1-.17-2.965,34.713,34.713,0,0,1,1.567-7.936,2.1,2.1,0,0,0-.521-2.181,6.717,6.717,0,0,0-1.105-1c-.823-.594-1.374-.635-2.093.064a20.93,20.93,0,0,0-2.409,2.77,31.7,31.7,0,0,0-3.477,6.528,4.618,4.618,0,0,1-.254.456c-.116-.119-.143-.2-.131-.271.246-1.591.52-3.179.736-4.771a23.113,23.113,0,0,0,.32-3.458,2.884,2.884,0,0,0-3.854-2.84c-.033.158-.075.319-.1.482a51.533,51.533,0,0,1-1.83,8.189,23.414,23.414,0,0,1-2.838,6.379,5.352,5.352,0,0,1-1.117,1.186c-.551.434-1.022.279-1.316-.366a3.572,3.572,0,0,1-.289-1,18.85,18.85,0,0,1,.748-7.428,11.851,11.851,0,0,0,.656-3.3,2.862,2.862,0,0,0-3.281-2.858c-.474,1.8-.911,3.618-1.434,5.412a35.828,35.828,0,0,1-2.908,7.435,9.062,9.062,0,0,1-1.339,1.773c-.373.394-.888.237-1.141-.256a2.1,2.1,0,0,1-.193-.56,8.917,8.917,0,0,1,.168-3.661c.5-2.229,1.085-4.44,1.662-6.647a2.066,2.066,0,0,0-.482-2.067,5.1,5.1,0,0,0-2.192-1.319c-.361-.124-.517-.014-.632.311a42.273,42.273,0,0,0-2.635,12.813,7.535,7.535,0,0,0,.645,3.542,2.813,2.813,0,0,0,3.62,1.487,5.3,5.3,0,0,0,1.671-1.29,16.544,16.544,0,0,0,2.669-4.8c.121-.3.245-.591.367-.886a2.257,2.257,0,0,1,.091.789,12.2,12.2,0,0,0,.538,4.221,3.276,3.276,0,0,0,5.355,1.587,9.968,9.968,0,0,0,1.813-2.035,22.33,22.33,0,0,0,2.913-7.144c.073-.289.15-.578.225-.867a.249.249,0,0,1,.066.211q-.516,3.266-1.033,6.536a8.536,8.536,0,0,0-.062,3.409,2.275,2.275,0,0,0,2.7,1.823c.361-.065.578-.208.6-.642a9.266,9.266,0,0,1,.248-1.671,41.661,41.661,0,0,1,6.3-13.915c.253-.371.578-.7.867-1.046a1.119,1.119,0,0,1-.089.563,29.522,29.522,0,0,0-1.962,9.351,10.671,10.671,0,0,0,.906,5,3.95,3.95,0,0,0,5.877,1.445,10.159,10.159,0,0,0,2.812-3.747c.081-.164.158-.325.275-.561.156.79.259,1.48.433,2.15a4.613,4.613,0,0,0,1.471,2.54,4.3,4.3,0,0,0,4.86.045,9.328,9.328,0,0,0,3.337-3.813c.439-.849.828-1.723,1.208-2.52.225.778.413,1.618.71,2.414a6.076,6.076,0,0,0,7,3.854,8.814,8.814,0,0,0,5.692-4.037c.462-.7.819-1.48,1.231-2.232.047.26.084.506.136.748a7.137,7.137,0,0,0,2.444,4.33c2.158,1.7,4.558,1.62,6.987.764a9.165,9.165,0,0,0,4.514-3.91,33.1,33.1,0,0,0,4.012-9.8c.309-1.147.578-2.305.884-3.536,1.407.5,2.779,1,4.172,1.5-.171.488-.327.908-.462,1.33a29.448,29.448,0,0,0-1.357,7.27,11.743,11.743,0,0,0,.867,5.845,3.956,3.956,0,0,0,5.524,1.773,7.1,7.1,0,0,0,2.574-2.724,39.328,39.328,0,0,0,3.769-9.431c.13-.482.252-.972.41-1.581.6,1.318,1.156,2.5,1.685,3.7a18.856,18.856,0,0,1,1.565,4.856c.068.463.023.731-.494.924a11.714,11.714,0,0,1-4.375.8.584.584,0,0,0-.464.216,2.911,2.911,0,0,0,1.663,4.072,5.746,5.746,0,0,0,3.853.073,5.4,5.4,0,0,0,4.123-5.491,1.156,1.156,0,0,1,.208-.7,23.942,23.942,0,0,0,3.641-5.446,16.669,16.669,0,0,0,.893-2.669c.135-.482-.066-.713-.558-.8m-55.511.725a12.38,12.38,0,0,1,2.151-4.064c.325-.373.693-.811,1.252-.6.507.193.514.727.543,1.19a10.876,10.876,0,0,1-.867,4.554,8.981,8.981,0,0,1-1.787,3.077,2.691,2.691,0,0,1-2.329,1,17.084,17.084,0,0,1,1.034-5.158m14.572,0a12.563,12.563,0,0,1,2.088-3.987c.328-.385.687-.86,1.274-.674s.561.763.591,1.252a10.784,10.784,0,0,1-.851,4.46,9,9,0,0,1-1.809,3.12,2.688,2.688,0,0,1-2.329.992,17.268,17.268,0,0,1,1.037-5.161" transform="translate(-359.862 -745.959)" fill="#f58220"/>
      <path id="Path_7" data-name="Path 7" d="M425.655,781.534c.482-.571,1.006-1.108,1.462-1.7a29.889,29.889,0,0,0,4.25-7.952,36,36,0,0,0,2.6-13.844,13.233,13.233,0,0,0-.641-3.351,2.358,2.358,0,0,0-2.734-1.786,3.564,3.564,0,0,0-1.939,1.238,14.235,14.235,0,0,0-2.333,3.63A51.992,51.992,0,0,0,422.73,768.6a71.577,71.577,0,0,0-1.624,9.81c-.1,1.088-.193,2.178-.289,3.253a6.508,6.508,0,0,1-3.565.09c-.9-.3-.891-.289-.638-1.2a19.474,19.474,0,0,0,.523-8.427c-.052-.326-.183-.482-.5-.491-.385-.015-.519-.226-.641-.592a4.35,4.35,0,0,0-4.535-3.237,6.04,6.04,0,0,0-4.475,2.188,13.833,13.833,0,0,0-3.125,5.709,4.046,4.046,0,0,1-1.777,2.354,3.18,3.18,0,0,1-1.09.441.933.933,0,0,1-1.115-1.171c.22-.951.469-1.9.62-2.862a10.484,10.484,0,0,0-.018-4.5,2.069,2.069,0,0,0-3.053-1.6.812.812,0,0,0-.546.565A16.509,16.509,0,0,0,396,775.6a7.129,7.129,0,0,0,1.175,3.8.568.568,0,0,1,.019.482c-.462,1.026-.9,2.066-1.44,3.052a5.518,5.518,0,0,1-1.979,2.258,1.456,1.456,0,0,1-2.277-.828,5.333,5.333,0,0,1-.3-1.8c.1-2.222.271-4.442.434-6.662a22.5,22.5,0,0,0,.044-5.021,3.331,3.331,0,0,0-3.968-2.951.416.416,0,0,0-.026.1q-.281,5.65-.557,11.3a16.712,16.712,0,0,0,.464,5.684,4.634,4.634,0,0,0,2.253,3.025,4.06,4.06,0,0,0,4.826-.746,14.274,14.274,0,0,0,2.933-4.011c.466-.891.874-1.811,1.252-2.6a12.807,12.807,0,0,0,2.244-.168,11.245,11.245,0,0,0,1.916-.867,12.3,12.3,0,0,0,.569,5.54c1.331,3.782,4.89,4.275,7.526,3.159a7.912,7.912,0,0,0,3.531-3.189c.365-.565.674-1.161,1.033-1.776a7.088,7.088,0,0,0,5.166.313c0,.674-.021,1.252,0,1.83a19.458,19.458,0,0,0,1.1,6.143,5.492,5.492,0,0,0,2.292,3.04c2.041,1.156,5.173-.482,5.675-2.964a4.242,4.242,0,0,0-.424-.1,3.454,3.454,0,0,1-2.018-1.085,6.638,6.638,0,0,1-1.445-2.636,17.841,17.841,0,0,1-.6-5.92.852.852,0,0,1,.232-.459m1.871-14.933a55.294,55.294,0,0,1,2.6-9.056,8.58,8.58,0,0,1,.719-1.357c.11-.174.35-.264.53-.391.117.182.329.363.333.55a21.613,21.613,0,0,1-.031,2.725,58.093,58.093,0,0,1-1.869,10.106,31.406,31.406,0,0,1-3.8,8.759c-.09.135-.188.264-.358.5a95.736,95.736,0,0,1,1.88-11.835m-13.079,5.4a5.009,5.009,0,0,0-1.582,3.337,10.16,10.16,0,0,0,.57,5.281c.157.4.4.759.587,1.146.058.121.122.307.071.4a6.993,6.993,0,0,1-2.571,3.033,9.394,9.394,0,0,1-1.467.54,2.437,2.437,0,0,1-2.191-1.492,6.319,6.319,0,0,1-.565-3.107,17.245,17.245,0,0,1,3.053-9.37,4.494,4.494,0,0,1,1.927-1.676,1.627,1.627,0,0,1,2.3,1.663.4.4,0,0,1-.13.244" transform="translate(-358.125 -745.715)" fill="#f58220"/>
      <path id="Path_8" data-name="Path 8" d="M439.845,798.559h-2.871v7.9h.873v-2.644h2c1.714,0,2.5-1.009,2.5-2.724s-.794-2.531-2.5-2.531m-.012,4.415h-1.987V799.4h1.987c1.145,0,1.623.534,1.623,1.69s-.482,1.884-1.623,1.884" transform="translate(-359.952 -747.388)" fill="#4e4c4d"/>
      <path id="Path_9" data-name="Path 9" d="M445.893,800.75c-1.793,0-2.44.921-2.44,2.873,0,2.077.522,3.03,2.44,3.03s2.417-1.043,2.417-3.007c0-1.942-.7-2.9-2.417-2.9m0,5.143c-1.34,0-1.566-.681-1.566-2.27,0-1.555.363-2.1,1.566-2.1,1.089,0,1.541.612,1.541,2.119s-.2,2.247-1.541,2.247" transform="translate(-360.19 -747.468)" fill="#4e4c4d"/>
      <path id="Path_10" data-name="Path 10" d="M455.151,805.772h-.181l-1.349-4.79h-.895l-1.363,4.79h-.181l-1.136-4.9H449.2l1.34,5.674h1.418l1.214-4.439,1.192,4.439H455.8l1.349-5.674H456.3Z" transform="translate(-360.4 -747.473)" fill="#4e4c4d"/>
      <path id="Path_11" data-name="Path 11" d="M460.519,800.75c-1.44,0-2.383.83-2.383,2.987,0,1.927.557,2.915,2.259,2.915a19.611,19.611,0,0,0,2.2-.18l-.022-.691s-1.226.1-2.077.1c-1.124,0-1.487-.624-1.5-1.815h3.757l.045-.66c0-1.86-.783-2.655-2.281-2.655M459,803.368c0-1.327.543-1.86,1.52-1.86s1.43.5,1.43,1.86Z" transform="translate(-360.727 -747.468)" fill="#4e4c4d"/>
      <path id="Path_12" data-name="Path 12" d="M465.111,800.865h-.853v5.675h.853v-4.12a6.357,6.357,0,0,1,1.974-.782v-.887a5.3,5.3,0,0,0-1.974.867Z" transform="translate(-360.951 -747.468)" fill="#4e4c4d"/>
      <path id="Path_13" data-name="Path 13" d="M470.242,800.75c-1.445,0-2.383.83-2.383,2.987,0,1.927.556,2.915,2.259,2.915a19.627,19.627,0,0,0,2.2-.18l-.023-.691s-1.225.1-2.076.1c-1.125,0-1.487-.624-1.5-1.815h3.757l.044-.66c0-1.86-.781-2.655-2.28-2.655m-1.52,2.621c0-1.327.544-1.86,1.52-1.86s1.431.5,1.431,1.86Z" transform="translate(-361.083 -747.468)" fill="#4e4c4d"/>
      <path id="Path_14" data-name="Path 14" d="M477.492,800.813a9.382,9.382,0,0,0-1.385-.148c-1.734,0-2.371.988-2.371,2.974,0,2.452.931,2.928,2.031,2.928a4.143,4.143,0,0,0,1.725-.488v.375h.851v-7.944h-.851Zm0,4.552a4.347,4.347,0,0,1-1.611.419c-.674-.01-1.3-.305-1.3-2.12,0-1.487.375-2.224,1.567-2.224a11.9,11.9,0,0,1,1.339.125Z" transform="translate(-361.298 -747.386)" fill="#4e4c4d"/>
      <path id="Path_15" data-name="Path 15" d="M485.845,800.66a4.8,4.8,0,0,0-1.658.376V798.3h-.851v8.137s1.226.124,1.907.124c2.066,0,2.678-.805,2.678-3.053,0-2.031-.534-2.85-2.076-2.85m-.614,5.143c-.306,0-1.044-.068-1.044-.068v-3.984a5.366,5.366,0,0,1,1.578-.305c1,0,1.293.613,1.293,2.088,0,1.566-.271,2.27-1.83,2.27" transform="translate(-361.65 -747.378)" fill="#4e4c4d"/>
      <path id="Path_16" data-name="Path 16" d="M491.426,805.725h-.385l-1.419-4.856h-.853l1.613,5.675h.828l-.726,2.518h.852l2.36-8.194h-.851Z" transform="translate(-361.849 -747.472)" fill="#4e4c4d"/>
      <path id="Path_17" data-name="Path 17" d="M500.558,800.656a5.629,5.629,0,0,0-1.749.385V798.16h-.851v8.285h.851v-4.676a5.41,5.41,0,0,1,1.623-.328c1.022,0,1.191.557,1.191,2.053v2.952h.853v-2.961c0-2.054-.352-2.827-1.918-2.827" transform="translate(-362.185 -747.373)" fill="#4e4c4d"/>
      <path id="Path_18" data-name="Path 18" d="M507.763,805.477a3.978,3.978,0,0,1-1.556.419c-1.066,0-1.2-.511-1.2-2.077v-2.951h-.84v2.962c0,2.1.328,2.826,1.917,2.826a4.24,4.24,0,0,0,1.68-.476v.363h.84v-5.675h-.84Z" transform="translate(-362.413 -747.472)" fill="#4e4c4d"/>
      <path id="Path_19" data-name="Path 19" d="M516.421,800.751a6.353,6.353,0,0,0-2.055.512,1.464,1.464,0,0,0-1.043-.482,3,3,0,0,0-.624.012,3.563,3.563,0,0,0-1.418.454v-.385h-.853v5.674h.853v-4.582a3.645,3.645,0,0,1,1.52-.42c1.032,0,1.191.511,1.191,2.077v2.928h.852v-2.947a6.935,6.935,0,0,0-.136-1.638,4.006,4.006,0,0,1,1.589-.42c1.077,0,1.192.578,1.192,2.312v2.689h.852v-2.943c0-2.1-.375-2.836-1.918-2.836" transform="translate(-362.642 -747.468)" fill="#4e4c4d"/>
      <path id="Path_20" data-name="Path 20" d="M524.228,805.394V802.6c0-1.283-.59-1.852-1.793-1.852a17.428,17.428,0,0,0-2.237.228l.034.738s1.34-.147,2.17-.147c.624,0,.987.318.987,1.033v.464l-1.793.17c-1.169.1-1.725.593-1.725,1.68,0,1.113.557,1.734,1.541,1.734a6.14,6.14,0,0,0,2.1-.432,1.656,1.656,0,0,0,1.34.432l.035-.737c-.364-.045-.637-.16-.659-.522m-.84.181a6.7,6.7,0,0,1-1.849.341c-.512,0-.807-.363-.807-1.022,0-.578.289-.931.977-1l1.679-.138Z" transform="translate(-362.988 -747.468)" fill="#4e4c4d"/>
      <path id="Path_21" data-name="Path 21" d="M528.845,800.751a4.68,4.68,0,0,0-1.759.488v-.375h-.851v5.674h.851v-4.585a4.516,4.516,0,0,1,1.623-.42c1.033,0,1.2.557,1.2,2.065v2.939h.84v-2.947c0-2.064-.352-2.836-1.908-2.836" transform="translate(-363.221 -747.468)" fill="#4e4c4d"/>
      <rect id="Rectangle_1" data-name="Rectangle 1" width="0.84" height="0.987" transform="translate(169.058 51.126)" fill="#4e4c4d"/>
      <rect id="Rectangle_2" data-name="Rectangle 2" width="0.84" height="5.675" transform="translate(169.058 53.395)" fill="#4e4c4d"/>
      <path id="Path_22" data-name="Path 22" d="M536.942,805.8c-.749,0-.816-.341-.816-1.578v-2.644h1.793v-.771h-1.793v-1.734h-.857v1.734h-.805v.771h.805v2.951c0,1.638.408,2.076,1.578,2.076a9.661,9.661,0,0,0,1.146-.125l-.046-.738s-.692.058-1.011.058" transform="translate(-363.522 -747.407)" fill="#4e4c4d"/>
      <path id="Path_23" data-name="Path 23" d="M542.929,800.869l-1.419,4.856h-.385l-1.419-4.856h-.852l1.612,5.675h.828l-.726,2.518h.853l2.36-8.194Z" transform="translate(-363.683 -747.472)" fill="#4e4c4d"/>
      <path id="Path_24" data-name="Path 24" d="M363.316,745.443l-6.291,17.864v1.112h3.391l1.515-4.826h6.4l1.573,4.826H374v-1.112l-6.315-17.864Zm-.49,11.252,2.223-6.994h.054l2.276,6.994Z" transform="translate(-357.025 -745.443)" fill="#fff"/>
      <path id="Path_25" data-name="Path 25" d="M381.928,755.728c-1.954-.245-2.656-.623-2.656-1.356,0-.813.592-1.273,2.143-1.273a5.507,5.507,0,0,1,3.251.948h1.19v-2.875a9.3,9.3,0,0,0-4.47-.974c-3.5,0-5.64,1.6-5.64,4.473,0,2.794,1.652,3.959,4.772,4.335,2.008.246,2.521.654,2.521,1.519,0,.893-.836,1.329-2.44,1.329a5.174,5.174,0,0,1-3.5-1.195h-1.246v2.925a9.562,9.562,0,0,0,4.932,1.169c4.122,0,5.938-1.814,5.938-4.608,0-2.872-1.411-3.985-4.8-4.419" transform="translate(-357.71 -745.617)" fill="#fff"/>
      <path id="Path_26" data-name="Path 26" d="M393.253,760.178v-7.294h2.876v-2.655h-2.876v-3.8H389.3v3.8h-1.681v2.655H389.3v7.753c0,2.953,1.654,4.039,4.39,4.039a7.764,7.764,0,0,0,2.494-.38v-2.387h-1.086c-1.3,0-1.842-.376-1.842-1.734" transform="translate(-358.145 -745.479)" fill="#fff"/>
      <path id="Path_27" data-name="Path 27" d="M403.868,750.142c-3.95,0-6.936,2.818-6.936,7.4,0,4.471,2.548,7.238,7.212,7.238a10.376,10.376,0,0,0,5.583-1.38v-2.6h-1.221a6.254,6.254,0,0,1-3.767,1.2c-2.2,0-3.549-.789-3.743-3.633h9.218c0-.139.056-.734.056-1.223,0-4.688-2.225-6.992-6.4-6.992m-2.814,5.828c.3-2.656,1.434-3.332,2.814-3.332,1.541,0,2.419.808,2.5,3.332Z" transform="translate(-358.486 -745.615)" fill="#fff"/>
      <path id="Path_28" data-name="Path 28" d="M420.628,750.226a5.389,5.389,0,0,0-3.96,1.845c-.137-1.412-.544-1.709-1.217-1.709h-2.687v14.232h3.959V754.318a8.934,8.934,0,0,1,4.094-.84h.674v-3.117a2.945,2.945,0,0,0-.867-.136" transform="translate(-359.066 -745.618)" fill="#fff"/>
      <path id="Path_29" data-name="Path 29" d="M544.1,774.253a18.286,18.286,0,0,1-4.721,7.129c-.174-.4-.325-.777-.5-1.144-1.324-2.746-2.66-5.485-3.965-8.24a1.17,1.17,0,0,1-.008-.828c.429-1.147.972-2.253,1.349-3.414a3.054,3.054,0,0,0-1.83-4.115.53.53,0,0,0-.466.033,9.171,9.171,0,0,0-2.524,3.646,7.243,7.243,0,0,0-.071,4.688.978.978,0,0,1,.031.527c-.777,2.548-1.488,5.122-2.385,7.628a20.519,20.519,0,0,1-1.957,3.782,2.064,2.064,0,0,1-2.233,1,1.645,1.645,0,0,1-1.179-1.721,16.936,16.936,0,0,1,0-3.521c.347-2.305.867-4.587,1.327-6.877a1.06,1.06,0,0,0-.553-1.377,2.948,2.948,0,0,0-.656-.349c-1.334-.44-2.672-.874-4.016-1.289-.832-.258-1.677-.477-2.521-.716.357-1.92.7-3.775,1.06-5.713-.521-.224-1.024-.473-1.549-.656a2.07,2.07,0,0,0-2.208.49,4.354,4.354,0,0,0-1.312,2.979,4.239,4.239,0,0,0,1.714,3.585.5.5,0,0,1,.2.589c-.173.674-.289,1.362-.449,2.039a28.772,28.772,0,0,1-3.591,9.059,9.061,9.061,0,0,1-3.984,3.709,3.25,3.25,0,0,1-4.209-1.282,5.562,5.562,0,0,1-.743-2.626c.156.048.266.076.372.115a4.23,4.23,0,0,0,4.779-1.119,10.123,10.123,0,0,0,2.493-4.522,8.693,8.693,0,0,0,.289-3.988,2.391,2.391,0,0,0-2.119-2.159,2.133,2.133,0,0,1-.587-.255c-.409-.22-.806-.462-1.219-.674a3.071,3.071,0,0,0-3.091.1,6.324,6.324,0,0,0-1.205.872,13.453,13.453,0,0,0-3.538,6.573,20.573,20.573,0,0,1-1.5,4.922,9.184,9.184,0,0,1-3.546,3.937,3.638,3.638,0,0,1-4.072-.15,5.086,5.086,0,0,1-1.629-3.645c.144.044.236.07.326.1a4.256,4.256,0,0,0,4.828-1.107,10.244,10.244,0,0,0,2.581-4.86,7.531,7.531,0,0,0,.09-4.081,2.324,2.324,0,0,0-1.655-1.707c-.422-.12-.825-.3-1.232-.465a10.874,10.874,0,0,0-2.159-.817,3.6,3.6,0,0,0-2.986,1.221,12.4,12.4,0,0,0-3.312,5.643c-.348,1.136-.476,2.336-.787,3.485a12.54,12.54,0,0,1-2.387,4.769,6.407,6.407,0,0,1-1.768,1.5,1.651,1.651,0,0,1-2.627-1.108,11.531,11.531,0,0,1-.36-2.948,48.531,48.531,0,0,1,1.6-11.112c.078-.315.2-.4.5-.385q1.245.06,2.491.076c.963.013,1.918,0,2.89,0a2.684,2.684,0,0,0-1.591-3.386,10.641,10.641,0,0,0-1.612-.482c-.358-.09-.731-.122-1.075-.176.207-.746.436-1.423.578-2.119.459-2.183-.328-3.446-2.339-3.772a6.288,6.288,0,0,0-.3.609c-.643,1.705-1.27,3.412-1.927,5.113a.786.786,0,0,1-.44.426c-.957.262-1.92.523-2.89.7-.761.141-1,.588-1.093,1.286-.152,1.19.33,1.8,1.541,1.824.522.012,1.046,0,1.6,0-.041.152-.065.248-.091.343a60.121,60.121,0,0,0-1.746,8.417,9.049,9.049,0,0,1-.289,1.961,12.939,12.939,0,0,1-1.268,2.578,6.386,6.386,0,0,1-1.572,1.695,1.6,1.6,0,0,1-2.7-1.029,11.616,11.616,0,0,1-.17-2.965,34.713,34.713,0,0,1,1.567-7.936,2.1,2.1,0,0,0-.521-2.181,6.717,6.717,0,0,0-1.105-1c-.823-.594-1.374-.635-2.093.064a20.93,20.93,0,0,0-2.409,2.77,31.7,31.7,0,0,0-3.477,6.528,4.618,4.618,0,0,1-.254.456c-.116-.119-.143-.2-.131-.271.246-1.591.52-3.179.736-4.771a23.113,23.113,0,0,0,.32-3.458,2.884,2.884,0,0,0-3.854-2.84c-.033.158-.075.319-.1.482a51.533,51.533,0,0,1-1.83,8.189,23.414,23.414,0,0,1-2.838,6.379,5.352,5.352,0,0,1-1.117,1.186c-.551.434-1.022.279-1.316-.366a3.572,3.572,0,0,1-.289-1,18.85,18.85,0,0,1,.748-7.428,11.851,11.851,0,0,0,.656-3.3,2.862,2.862,0,0,0-3.281-2.858c-.474,1.8-.911,3.618-1.434,5.412a35.828,35.828,0,0,1-2.908,7.435,9.062,9.062,0,0,1-1.339,1.773c-.373.394-.888.237-1.141-.256a2.1,2.1,0,0,1-.193-.56,8.917,8.917,0,0,1,.168-3.661c.5-2.229,1.085-4.44,1.662-6.647a2.066,2.066,0,0,0-.482-2.067,5.1,5.1,0,0,0-2.192-1.319c-.361-.124-.517-.014-.632.311a42.273,42.273,0,0,0-2.635,12.813,7.535,7.535,0,0,0,.645,3.542,2.813,2.813,0,0,0,3.62,1.487,5.3,5.3,0,0,0,1.671-1.29,16.544,16.544,0,0,0,2.669-4.8c.121-.3.245-.591.367-.886a2.257,2.257,0,0,1,.091.789,12.2,12.2,0,0,0,.538,4.221,3.276,3.276,0,0,0,5.355,1.587,9.968,9.968,0,0,0,1.813-2.035,22.33,22.33,0,0,0,2.913-7.144c.073-.289.15-.578.225-.867a.249.249,0,0,1,.066.211q-.516,3.266-1.033,6.536a8.536,8.536,0,0,0-.062,3.409,2.275,2.275,0,0,0,2.7,1.823c.361-.065.578-.208.6-.642a9.266,9.266,0,0,1,.248-1.671,41.661,41.661,0,0,1,6.3-13.915c.253-.371.578-.7.867-1.046a1.119,1.119,0,0,1-.089.563,29.522,29.522,0,0,0-1.962,9.351,10.671,10.671,0,0,0,.906,5,3.95,3.95,0,0,0,5.877,1.445,10.159,10.159,0,0,0,2.812-3.747c.081-.164.158-.325.275-.561.156.79.259,1.48.433,2.15a4.613,4.613,0,0,0,1.471,2.54,4.3,4.3,0,0,0,4.86.045,9.328,9.328,0,0,0,3.337-3.813c.439-.849.828-1.723,1.208-2.52.225.778.413,1.618.71,2.414a6.076,6.076,0,0,0,7,3.854,8.814,8.814,0,0,0,5.692-4.037c.462-.7.819-1.48,1.231-2.232.047.26.084.506.136.748a7.137,7.137,0,0,0,2.444,4.33c2.158,1.7,4.558,1.62,6.987.764a9.165,9.165,0,0,0,4.514-3.91,33.1,33.1,0,0,0,4.012-9.8c.309-1.147.578-2.305.884-3.536,1.407.5,2.779,1,4.172,1.5-.171.488-.327.908-.462,1.33a29.448,29.448,0,0,0-1.357,7.27,11.743,11.743,0,0,0,.867,5.845,3.956,3.956,0,0,0,5.524,1.773,7.1,7.1,0,0,0,2.574-2.724,39.328,39.328,0,0,0,3.769-9.431c.13-.482.252-.972.41-1.581.6,1.318,1.156,2.5,1.685,3.7a18.856,18.856,0,0,1,1.565,4.856c.068.463.023.731-.494.924a11.714,11.714,0,0,1-4.375.8.584.584,0,0,0-.464.216,2.911,2.911,0,0,0,1.663,4.072,5.746,5.746,0,0,0,3.853.073,5.4,5.4,0,0,0,4.123-5.491,1.156,1.156,0,0,1,.208-.7,23.942,23.942,0,0,0,3.641-5.446,16.669,16.669,0,0,0,.893-2.669c.135-.482-.066-.713-.558-.8m-55.511.725a12.38,12.38,0,0,1,2.151-4.064c.325-.373.693-.811,1.252-.6.507.193.514.727.543,1.19a10.876,10.876,0,0,1-.867,4.554,8.981,8.981,0,0,1-1.787,3.077,2.691,2.691,0,0,1-2.329,1,17.084,17.084,0,0,1,1.034-5.158m14.572,0a12.563,12.563,0,0,1,2.088-3.987c.328-.385.687-.86,1.274-.674s.561.763.591,1.252a10.784,10.784,0,0,1-.851,4.46,9,9,0,0,1-1.809,3.12,2.688,2.688,0,0,1-2.329.992,17.268,17.268,0,0,1,1.037-5.161" transform="translate(-359.862 -745.959)" fill="#f58220"/>
      <path id="Path_30" data-name="Path 30" d="M425.655,781.534c.482-.571,1.006-1.108,1.462-1.7a29.889,29.889,0,0,0,4.25-7.952,36,36,0,0,0,2.6-13.844,13.233,13.233,0,0,0-.641-3.351,2.358,2.358,0,0,0-2.734-1.786,3.564,3.564,0,0,0-1.939,1.238,14.235,14.235,0,0,0-2.333,3.63A51.992,51.992,0,0,0,422.73,768.6a71.577,71.577,0,0,0-1.624,9.81c-.1,1.088-.193,2.178-.289,3.253a6.508,6.508,0,0,1-3.565.09c-.9-.3-.891-.289-.638-1.2a19.474,19.474,0,0,0,.523-8.427c-.052-.326-.183-.482-.5-.491-.385-.015-.519-.226-.641-.592a4.35,4.35,0,0,0-4.535-3.237,6.04,6.04,0,0,0-4.475,2.188,13.833,13.833,0,0,0-3.125,5.709,4.046,4.046,0,0,1-1.777,2.354,3.18,3.18,0,0,1-1.09.441.933.933,0,0,1-1.115-1.171c.22-.951.469-1.9.62-2.862a10.484,10.484,0,0,0-.018-4.5,2.069,2.069,0,0,0-3.053-1.6.812.812,0,0,0-.546.565A16.509,16.509,0,0,0,396,775.6a7.129,7.129,0,0,0,1.175,3.8.568.568,0,0,1,.019.482c-.462,1.026-.9,2.066-1.44,3.052a5.518,5.518,0,0,1-1.979,2.258,1.456,1.456,0,0,1-2.277-.828,5.333,5.333,0,0,1-.3-1.8c.1-2.222.271-4.442.434-6.662a22.5,22.5,0,0,0,.044-5.021,3.331,3.331,0,0,0-3.968-2.951.416.416,0,0,0-.026.1q-.281,5.65-.557,11.3a16.712,16.712,0,0,0,.464,5.684,4.634,4.634,0,0,0,2.253,3.025,4.06,4.06,0,0,0,4.826-.746,14.274,14.274,0,0,0,2.933-4.011c.466-.891.874-1.811,1.252-2.6a12.807,12.807,0,0,0,2.244-.168,11.245,11.245,0,0,0,1.916-.867,12.3,12.3,0,0,0,.569,5.54c1.331,3.782,4.89,4.275,7.526,3.159a7.912,7.912,0,0,0,3.531-3.189c.365-.565.674-1.161,1.033-1.776a7.088,7.088,0,0,0,5.166.313c0,.674-.021,1.252,0,1.83a19.458,19.458,0,0,0,1.1,6.143,5.492,5.492,0,0,0,2.292,3.04c2.041,1.156,5.173-.482,5.675-2.964a4.242,4.242,0,0,0-.424-.1,3.454,3.454,0,0,1-2.018-1.085,6.638,6.638,0,0,1-1.445-2.636,17.841,17.841,0,0,1-.6-5.92.852.852,0,0,1,.232-.459m1.871-14.933a55.294,55.294,0,0,1,2.6-9.056,8.58,8.58,0,0,1,.719-1.357c.11-.174.35-.264.53-.391.117.182.329.363.333.55a21.613,21.613,0,0,1-.031,2.725,58.093,58.093,0,0,1-1.869,10.106,31.406,31.406,0,0,1-3.8,8.759c-.09.135-.188.264-.358.5a95.736,95.736,0,0,1,1.88-11.835m-13.079,5.4a5.009,5.009,0,0,0-1.582,3.337,10.16,10.16,0,0,0,.57,5.281c.157.4.4.759.587,1.146.058.121.122.307.071.4a6.993,6.993,0,0,1-2.571,3.033,9.394,9.394,0,0,1-1.467.54,2.437,2.437,0,0,1-2.191-1.492,6.319,6.319,0,0,1-.565-3.107,17.245,17.245,0,0,1,3.053-9.37,4.494,4.494,0,0,1,1.927-1.676,1.627,1.627,0,0,1,2.3,1.663.4.4,0,0,1-.13.244" transform="translate(-358.125 -745.715)" fill="#f58220"/>
      <path id="Path_31" data-name="Path 31" d="M439.845,798.559h-2.871v7.9h.873v-2.644h2c1.714,0,2.5-1.009,2.5-2.724s-.794-2.531-2.5-2.531m-.012,4.415h-1.987V799.4h1.987c1.145,0,1.623.534,1.623,1.69s-.482,1.884-1.623,1.884" transform="translate(-359.952 -747.388)" fill="#fff"/>
      <path id="Path_32" data-name="Path 32" d="M445.893,800.75c-1.793,0-2.44.921-2.44,2.873,0,2.077.522,3.03,2.44,3.03s2.417-1.043,2.417-3.007c0-1.942-.7-2.9-2.417-2.9m0,5.143c-1.34,0-1.566-.681-1.566-2.27,0-1.555.363-2.1,1.566-2.1,1.089,0,1.541.612,1.541,2.119s-.2,2.247-1.541,2.247" transform="translate(-360.19 -747.468)" fill="#fff"/>
      <path id="Path_33" data-name="Path 33" d="M455.151,805.772h-.181l-1.349-4.79h-.895l-1.363,4.79h-.181l-1.136-4.9H449.2l1.34,5.674h1.418l1.214-4.439,1.192,4.439H455.8l1.349-5.674H456.3Z" transform="translate(-360.4 -747.473)" fill="#fff"/>
      <path id="Path_34" data-name="Path 34" d="M460.519,800.75c-1.44,0-2.383.83-2.383,2.987,0,1.927.557,2.915,2.259,2.915a19.611,19.611,0,0,0,2.2-.18l-.022-.691s-1.226.1-2.077.1c-1.124,0-1.487-.624-1.5-1.815h3.757l.045-.66c0-1.86-.783-2.655-2.281-2.655M459,803.368c0-1.327.543-1.86,1.52-1.86s1.43.5,1.43,1.86Z" transform="translate(-360.727 -747.468)" fill="#fff"/>
      <path id="Path_35" data-name="Path 35" d="M465.111,800.865h-.853v5.675h.853v-4.12a6.357,6.357,0,0,1,1.974-.782v-.887a5.3,5.3,0,0,0-1.974.867Z" transform="translate(-360.951 -747.468)" fill="#fff"/>
      <path id="Path_36" data-name="Path 36" d="M470.242,800.75c-1.445,0-2.383.83-2.383,2.987,0,1.927.556,2.915,2.259,2.915a19.627,19.627,0,0,0,2.2-.18l-.023-.691s-1.225.1-2.076.1c-1.125,0-1.487-.624-1.5-1.815h3.757l.044-.66c0-1.86-.781-2.655-2.28-2.655m-1.52,2.621c0-1.327.544-1.86,1.52-1.86s1.431.5,1.431,1.86Z" transform="translate(-361.083 -747.468)" fill="#fff"/>
      <path id="Path_37" data-name="Path 37" d="M477.492,800.813a9.382,9.382,0,0,0-1.385-.148c-1.734,0-2.371.988-2.371,2.974,0,2.452.931,2.928,2.031,2.928a4.143,4.143,0,0,0,1.725-.488v.375h.851v-7.944h-.851Zm0,4.552a4.347,4.347,0,0,1-1.611.419c-.674-.01-1.3-.305-1.3-2.12,0-1.487.375-2.224,1.567-2.224a11.9,11.9,0,0,1,1.339.125Z" transform="translate(-361.298 -747.386)" fill="#fff"/>
      <path id="Path_38" data-name="Path 38" d="M485.845,800.66a4.8,4.8,0,0,0-1.658.376V798.3h-.851v8.137s1.226.124,1.907.124c2.066,0,2.678-.805,2.678-3.053,0-2.031-.534-2.85-2.076-2.85m-.614,5.143c-.306,0-1.044-.068-1.044-.068v-3.984a5.366,5.366,0,0,1,1.578-.305c1,0,1.293.613,1.293,2.088,0,1.566-.271,2.27-1.83,2.27" transform="translate(-361.65 -747.378)" fill="#fff"/>
      <path id="Path_39" data-name="Path 39" d="M491.426,805.725h-.385l-1.419-4.856h-.853l1.613,5.675h.828l-.726,2.518h.852l2.36-8.194h-.851Z" transform="translate(-361.849 -747.472)" fill="#fff"/>
      <path id="Path_40" data-name="Path 40" d="M500.558,800.656a5.629,5.629,0,0,0-1.749.385V798.16h-.851v8.285h.851v-4.676a5.41,5.41,0,0,1,1.623-.328c1.022,0,1.191.557,1.191,2.053v2.952h.853v-2.961c0-2.054-.352-2.827-1.918-2.827" transform="translate(-362.185 -747.373)" fill="#fff"/>
      <path id="Path_41" data-name="Path 41" d="M507.763,805.477a3.978,3.978,0,0,1-1.556.419c-1.066,0-1.2-.511-1.2-2.077v-2.951h-.84v2.962c0,2.1.328,2.826,1.917,2.826a4.24,4.24,0,0,0,1.68-.476v.363h.84v-5.675h-.84Z" transform="translate(-362.413 -747.472)" fill="#fff"/>
      <path id="Path_42" data-name="Path 42" d="M516.421,800.751a6.353,6.353,0,0,0-2.055.512,1.464,1.464,0,0,0-1.043-.482,3,3,0,0,0-.624.012,3.563,3.563,0,0,0-1.418.454v-.385h-.853v5.674h.853v-4.582a3.645,3.645,0,0,1,1.52-.42c1.032,0,1.191.511,1.191,2.077v2.928h.852v-2.947a6.935,6.935,0,0,0-.136-1.638,4.006,4.006,0,0,1,1.589-.42c1.077,0,1.192.578,1.192,2.312v2.689h.852v-2.943c0-2.1-.375-2.836-1.918-2.836" transform="translate(-362.642 -747.468)" fill="#fff"/>
      <path id="Path_43" data-name="Path 43" d="M524.228,805.394V802.6c0-1.283-.59-1.852-1.793-1.852a17.428,17.428,0,0,0-2.237.228l.034.738s1.34-.147,2.17-.147c.624,0,.987.318.987,1.033v.464l-1.793.17c-1.169.1-1.725.593-1.725,1.68,0,1.113.557,1.734,1.541,1.734a6.14,6.14,0,0,0,2.1-.432,1.656,1.656,0,0,0,1.34.432l.035-.737c-.364-.045-.637-.16-.659-.522m-.84.181a6.7,6.7,0,0,1-1.849.341c-.512,0-.807-.363-.807-1.022,0-.578.289-.931.977-1l1.679-.138Z" transform="translate(-362.988 -747.468)" fill="#fff"/>
      <path id="Path_44" data-name="Path 44" d="M528.845,800.751a4.68,4.68,0,0,0-1.759.488v-.375h-.851v5.674h.851v-4.585a4.516,4.516,0,0,1,1.623-.42c1.033,0,1.2.557,1.2,2.065v2.939h.84v-2.947c0-2.064-.352-2.836-1.908-2.836" transform="translate(-363.221 -747.468)" fill="#fff"/>
      <rect id="Rectangle_3" data-name="Rectangle 3" width="0.84" height="0.987" transform="translate(169.058 51.126)" fill="#4e4c4d"/>
      <rect id="Rectangle_4" data-name="Rectangle 4" width="0.84" height="5.675" transform="translate(169.058 53.395)" fill="#fff"/>
      <path id="Path_45" data-name="Path 45" d="M536.942,805.8c-.749,0-.816-.341-.816-1.578v-2.644h1.793v-.771h-1.793v-1.734h-.857v1.734h-.805v.771h.805v2.951c0,1.638.408,2.076,1.578,2.076a9.661,9.661,0,0,0,1.146-.125l-.046-.738s-.692.058-1.011.058" transform="translate(-363.522 -747.407)" fill="#fff"/>
      <path id="Path_46" data-name="Path 46" d="M542.929,800.869l-1.419,4.856h-.385l-1.419-4.856h-.852l1.612,5.675h.828l-.726,2.518h.853l2.36-8.194Z" transform="translate(-363.683 -747.472)" fill="#fff"/>
    </g>
  </g>
</svg>
