<svg width="22" height="23" viewBox="0 0 22 23" fill="none" xmlns="http://www.w3.org/2000/svg">
<path d="M5.1673 5.18673C4.45623 5.18673 4.01267 5.84529 4.2158 6.46753C4.94416 8.69858 6.30143 12.0548 8.32558 14.1469C10.3497 16.239 13.597 17.6418 15.7556 18.3946C16.3576 18.6046 16.9948 18.1462 16.9948 17.4112V15.1458C16.9948 15.0647 16.9523 14.99 16.8838 14.9507L14.9745 13.8536C14.9121 13.8177 14.8367 13.816 14.773 13.849L12.7369 14.9012C12.6095 14.967 12.4648 14.9876 12.325 14.9599L12.4471 14.3021C12.325 14.9599 12.325 14.9599 12.325 14.9599L12.3231 14.9596L12.3207 14.9591L12.3142 14.9577L12.2946 14.9535C12.2788 14.95 12.2573 14.9451 12.2306 14.9386C12.1773 14.9256 12.1032 14.9061 12.0118 14.8789C11.8294 14.8244 11.5765 14.7383 11.2827 14.6089C10.6976 14.3512 9.93377 13.9147 9.24203 13.1997C8.55038 12.4849 8.12684 11.6943 7.87633 11.0886C7.75052 10.7845 7.66657 10.5227 7.61343 10.3338C7.58683 10.2392 7.56782 10.1624 7.55508 10.1073C7.54871 10.0797 7.54389 10.0575 7.54047 10.0411L7.53635 10.0209L7.53503 10.0142L7.53455 10.0117L7.53436 10.0106C7.53436 10.0106 7.53419 10.0097 8.1703 9.88186L7.53436 10.0106C7.50707 9.86562 7.52676 9.71447 7.59068 9.58233L8.60886 7.47758C8.64072 7.41173 8.63914 7.33379 8.60453 7.26935L7.54767 5.30168C7.50954 5.23069 7.4372 5.18673 7.35879 5.18673H5.1673ZM8.85764 9.95869L8.85796 9.9598C8.89873 10.1048 8.96573 10.3147 9.06805 10.5621C9.27379 11.0595 9.61523 11.691 10.1585 12.2525M10.1585 12.2525C10.7016 12.8139 11.3112 13.1654 11.7908 13.3766C12.0293 13.4816 12.2316 13.5502 12.3712 13.5919L14.1933 12.6509C14.6399 12.4201 15.1679 12.432 15.6043 12.6828L17.5134 13.7799C17.9933 14.0556 18.2908 14.5784 18.2908 15.1458V17.4112C18.2908 18.9836 16.8544 20.1916 15.3412 19.6639C13.1555 18.9016 9.65924 17.4198 7.40915 15.0941C5.15901 12.7685 3.72527 9.15485 2.98777 6.8958C2.47719 5.33179 3.64601 3.84717 5.1673 3.84717H7.35879C7.90811 3.84717 8.41416 4.15512 8.68077 4.6514L9.73768 6.61917C9.97982 7.07001 9.99127 7.61537 9.76807 8.07668L8.85764 9.95869" fill="#BCBCBC"/>
</svg>
