<svg width="22" height="23" viewBox="0 0 22 23" fill="none" xmlns="http://www.w3.org/2000/svg">
<path fill-rule="evenodd" clip-rule="evenodd" d="M1.10239 4.86283C1.10239 4.48527 1.39852 4.1792 1.76382 4.1792H19.402C19.7673 4.1792 20.0635 4.48527 20.0635 4.86283V18.5355C20.0635 18.9131 19.7673 19.2192 19.402 19.2192H1.76382C1.39852 19.2192 1.10239 18.9131 1.10239 18.5355V4.86283ZM2.42525 5.54647V17.8519H18.7406V5.54647H2.42525Z" fill="#BCBCBC"/>
<path fill-rule="evenodd" clip-rule="evenodd" d="M1.23471 4.45269C1.45389 4.15064 1.86848 4.08943 2.16072 4.31597L10.583 10.8447L19.0052 4.31597C19.2975 4.08943 19.712 4.15064 19.9312 4.45269C20.1504 4.75474 20.0912 5.18325 19.7989 5.40978L10.9798 12.2461C10.7446 12.4284 10.4213 12.4284 10.1861 12.2461L1.367 5.40978C1.07476 5.18325 1.01553 4.75474 1.23471 4.45269Z" fill="#BCBCBC"/>
<path fill-rule="evenodd" clip-rule="evenodd" d="M1.10239 4.86283C1.10239 4.48527 1.39852 4.1792 1.76382 4.1792H10.5829C10.9482 4.1792 11.2444 4.48527 11.2444 4.86283C11.2444 5.2404 10.9482 5.54647 10.5829 5.54647H2.42525V11.6992C2.42525 12.0768 2.12912 12.3828 1.76382 12.3828C1.39852 12.3828 1.10239 12.0768 1.10239 11.6992V4.86283Z" fill="#BCBCBC"/>
<path fill-rule="evenodd" clip-rule="evenodd" d="M9.92149 4.86283C9.92149 4.48527 10.2176 4.1792 10.5829 4.1792H19.402C19.7673 4.1792 20.0635 4.48527 20.0635 4.86283V11.6992C20.0635 12.0768 19.7673 12.3828 19.402 12.3828C19.0367 12.3828 18.7406 12.0768 18.7406 11.6992V5.54647H10.5829C10.2176 5.54647 9.92149 5.2404 9.92149 4.86283Z" fill="#BCBCBC"/>
</svg>
