<svg xmlns="http://www.w3.org/2000/svg" width="34.501" height="33.059" viewBox="0 0 34.501 33.059">
  <g id="Group_1606" data-name="Group 1606" transform="translate(-175.499 -987.685)">
    <path id="Path_2813" data-name="Path 2813" d="M1739.471,1249.589a.815.815,0,1,1,1.63,0v13.473h-1.63v-13.473Zm2.986,13.473V1256h28.526v7.067h-1.63v-5.437h-25.264v5.437Zm29.885-19.351a.815.815,0,1,1,1.629,0v19.351h-1.629v-19.351Zm-8.829,8.208h-8.151v-3.531h-1.087v3.531h-1.086v-3.531h-7.745a3,3,0,0,0-2.988,2.988v3.26h28.526V1245.7c0-.512-.644-.61-.968-.288q-3.252,3.253-6.5,6.5Z" transform="translate(-1563.972 -242.319)" fill="#00b38c"/>
    <path id="Path_2814" data-name="Path 2814" d="M1937.575,1206.108a2.581,2.581,0,1,0,2.581,2.581,2.579,2.579,0,0,0-2.581-2.581Z" transform="translate(-1733.145 -216.488)" fill="#00b38c" fill-rule="evenodd"/>
    <path id="Path_2815" data-name="Path 2815" d="M1869.9,1253.942l3.714-3.714a3.131,3.131,0,0,1,4.419,0c.03.032.063.064.094.1l-3.617,3.617h0l-2.444,2.445h-6.615v-2.445Z" transform="translate(-1672.971 -247.873)" fill="#00b38c" fill-rule="evenodd"/>
    <path id="Path_2816" data-name="Path 2816" d="M1774.083,1175.615h-10.239a1.134,1.134,0,0,0-1.129,1.129v6.888a1.136,1.136,0,0,0,1.129,1.13h10.239a1.136,1.136,0,0,0,1.13-1.13v-6.888a1.134,1.134,0,0,0-1.13-1.129Zm-10.239-1.086h10.239a2.219,2.219,0,0,1,2.215,2.215v6.888a2.22,2.22,0,0,1-2.215,2.217h-10.239a2.224,2.224,0,0,1-2.216-2.217v-6.888a2.222,2.222,0,0,1,2.216-2.215Z" transform="translate(-1583.143 -183.166)" fill="#00b38c"/>
    <path id="Path_2817" data-name="Path 2817" d="M1777.473,1195.621h1.482l.68-.78a.413.413,0,0,1,.578-.042.367.367,0,0,1,.089.113l0,0,.583,1.06,1.2-3.931a.408.408,0,0,1,.786.022h0l1.044,4.287.757-2.823a.409.409,0,0,1,.766-.066h0l1.005,2.163h1.4v.816h-1.663v0a.41.41,0,0,1-.373-.236l-.64-1.379-.879,3.278h0a.409.409,0,0,1-.791-.006l-1.069-4.393-1.04,3.406a.409.409,0,0,1-.757.1l-.77-1.394-.4.458a.411.411,0,0,1-.331.166h-1.667v-.816Z" transform="translate(-1596.853 -204.065)" fill="#00b38c"/>
  </g>
</svg>
