<svg width="16" height="16" viewBox="0 0 16 16" fill="none" xmlns="http://www.w3.org/2000/svg">
<path d="M10.1464 7.87061C10.1464 8.34528 10.0056 8.8093 9.7419 9.20397C9.47818 9.59865 9.10335 9.90627 8.66481 10.0879C8.22627 10.2696 7.74371 10.3171 7.27815 10.2245C6.8126 10.1319 6.38496 9.90331 6.04931 9.56766C5.71367 9.23202 5.48509 8.80438 5.39248 8.33882C5.29988 7.87327 5.34741 7.39071 5.52906 6.95217C5.71071 6.51362 6.01832 6.13879 6.413 5.87508C6.80768 5.61136 7.27169 5.47061 7.74637 5.47061C8.38266 5.47133 8.99269 5.72442 9.44262 6.17435C9.89255 6.62428 10.1456 7.23431 10.1464 7.87061ZM15.2464 4.57061V11.1706C15.2451 12.2841 14.8022 13.3517 14.0148 14.1391C13.2274 14.9264 12.1599 15.3693 11.0464 15.3706H4.44637C3.33285 15.3693 2.26529 14.9264 1.47791 14.1391C0.690533 13.3517 0.24763 12.2841 0.246368 11.1706V4.57061C0.24763 3.45708 0.690533 2.38953 1.47791 1.60215C2.26529 0.81477 3.33285 0.371867 4.44637 0.370605H11.0464C12.1599 0.371867 13.2274 0.81477 14.0148 1.60215C14.8022 2.38953 15.2451 3.45708 15.2464 4.57061ZM11.3464 7.87061C11.3464 7.15859 11.1352 6.46257 10.7397 5.87055C10.3441 5.27854 9.78184 4.81711 9.12403 4.54464C8.46622 4.27216 7.74238 4.20087 7.04404 4.33978C6.34571 4.47869 5.70425 4.82155 5.20078 5.32502C4.69732 5.82849 4.35445 6.46995 4.21554 7.16828C4.07664 7.86661 4.14793 8.59045 4.4204 9.24827C4.69288 9.90608 5.1543 10.4683 5.74632 10.8639C6.33833 11.2595 7.03436 11.4706 7.74637 11.4706C8.70082 11.4695 9.61586 11.0899 10.2908 10.415C10.9657 9.7401 11.3453 8.82505 11.3464 7.87061ZM12.5464 3.97061C12.5464 3.7926 12.4936 3.6186 12.3947 3.47059C12.2958 3.32259 12.1552 3.20723 11.9908 3.13911C11.8263 3.071 11.6454 3.05317 11.4708 3.0879C11.2962 3.12263 11.1358 3.20834 11.01 3.33421C10.8841 3.46008 10.7984 3.62044 10.7637 3.79502C10.7289 3.96961 10.7468 4.15057 10.8149 4.31502C10.883 4.47947 10.9984 4.62004 11.1464 4.71893C11.2944 4.81782 11.4684 4.87061 11.6464 4.87061C11.8851 4.87061 12.114 4.77578 12.2828 4.607C12.4515 4.43822 12.5464 4.2093 12.5464 3.97061Z" fill="white"/>
</svg>
