<svg width="17" height="18" viewBox="0 0 17 18" fill="none" xmlns="http://www.w3.org/2000/svg">
<g clip-path="url(#clip0_233_539)">
<path d="M4.37511 15.3414H1.21565V5.11764H4.37511V15.3414ZM2.79368 3.72303C1.78339 3.72303 0.963928 2.88215 0.963928 1.86696C0.963928 1.37932 1.1567 0.911656 1.49985 0.566844C1.84299 0.222033 2.3084 0.0283203 2.79368 0.0283203C3.27896 0.0283203 3.74436 0.222033 4.08751 0.566844C4.43065 0.911656 4.62343 1.37932 4.62343 1.86696C4.62343 2.88215 3.80363 3.72303 2.79368 3.72303ZM16.1999 15.3414H13.0473V10.3645C13.0473 9.17843 13.0235 7.65735 11.4046 7.65735C9.76197 7.65735 9.51025 8.946 9.51025 10.2791V15.3414H6.35419V5.11764H9.38439V6.51226H9.42861C9.85041 5.70899 10.8808 4.86128 12.418 4.86128C15.6155 4.86128 16.2033 6.97713 16.2033 9.72534V15.3414H16.1999Z" fill="white"/>
</g>
<defs>
<clipPath id="clip0_233_539">
<rect width="15.2394" height="17.5011" fill="white" transform="translate(0.963928 0.0273438)"/>
</clipPath>
</defs>
</svg>
