<svg xmlns="http://www.w3.org/2000/svg" width="76.162" height="75.92" viewBox="0 0 76.162 75.92">
  <g id="Group_2105" data-name="Group 2105" transform="translate(-76.852 -63.246)">
    <path id="Path_21797" data-name="Path 21797" d="M152.514,126.16a12.544,12.544,0,0,1-12.508,12.507H89.861A12.544,12.544,0,0,1,77.352,126.16V76.014A12.342,12.342,0,0,1,89.861,63.746h50.145a12.341,12.341,0,0,1,12.508,12.268Z" transform="translate(0 0)" fill="#144d92" stroke="#fff" stroke-width="1"/>
    <path id="Path_21798" data-name="Path 21798" d="M243.469,256.068c0-4,2.392-6.492,5.905-6.492,3.562,0,5.929,2.489,5.929,6.492,0,4.026-2.367,6.466-5.929,6.466C245.861,262.535,243.469,260.094,243.469,256.068Zm10.59,0c0-3.465-1.781-5.539-4.685-5.539-2.88,0-4.661,2.074-4.661,5.539,0,3.489,1.781,5.515,4.661,5.515C252.278,261.583,254.059,259.557,254.059,256.068Z" transform="translate(-146.838 -164.264)" fill="#fff"/>
    <path id="Path_21799" data-name="Path 21799" d="M364.532,251.749a9.049,9.049,0,0,1,5.588-2.172c1.781,0,3.294.733,3.294,3.392v9.468h-1.22v-9.321c0-2.025-1.1-2.513-2.538-2.513a8.926,8.926,0,0,0-5.124,2.147v9.688h-1.22V249.724h.561c.537,0,.659.147.659,1.269Z" transform="translate(-252.772 -164.264)" fill="#fff"/>
    <path id="Path_21800" data-name="Path 21800" d="M469.048,261.534A5.42,5.42,0,0,0,473,260.216h.536v.9a7.1,7.1,0,0,1-4.612,1.416c-3.831,0-5.954-2.464-5.954-6.417,0-4,2.391-6.54,5.637-6.54,3.123,0,5.221,1.806,5.221,5.954,0,.245-.024.537-.024.586h-9.59C464.216,259.68,465.876,261.534,469.048,261.534Zm-4.808-6.345h8.371c-.074-3.392-1.636-4.685-4-4.685C466.266,250.5,464.534,252.066,464.24,255.19Z" transform="translate(-340.866 -164.264)" fill="#fff"/>
    <path id="Path_21801" data-name="Path 21801" d="M155.2,416.172l5.726-16.259H164.9l5.748,16.259v1.012h-3.726l-1.432-4.392H159.67l-1.379,4.392H155.2Zm5.279-6.018h4.145l-2.073-6.367h-.049Z" transform="translate(-68.817 -297.152)" fill="#fff"/>
    <path id="Path_21802" data-name="Path 21802" d="M296.751,448.023v-2.661h1.134a4.711,4.711,0,0,0,3.183,1.086c1.461,0,2.222-.4,2.222-1.209,0-.788-.468-1.161-2.3-1.385-2.838-.342-4.342-1.4-4.342-3.946,0-2.616,1.95-4.071,5.132-4.071a8.455,8.455,0,0,1,4.068.887v2.615h-1.081a5.026,5.026,0,0,0-2.959-.861c-1.412,0-1.95.418-1.95,1.157,0,.668.639,1.014,2.417,1.236,3.082.394,4.367,1.407,4.367,4.022,0,2.542-1.652,4.193-5.4,4.193a8.7,8.7,0,0,1-4.49-1.064" transform="translate(-193.848 -328.907)" fill="#fff"/>
    <path id="Path_21803" data-name="Path 21803" d="M386.323,410.8h1.529v-3.456h3.6V410.8h2.618v2.417h-2.618v6.638c0,1.234.492,1.577,1.676,1.577h.989V423.6a7.1,7.1,0,0,1-2.27.345c-2.49,0-4-.988-4-3.675v-7.057h-1.529Z" transform="translate(-273.112 -303.72)" fill="#fff"/>
    <path id="Path_21804" data-name="Path 21804" d="M460.428,442.889c.175,2.589,1.407,3.307,3.406,3.307a5.681,5.681,0,0,0,3.428-1.089h1.111v2.371a9.447,9.447,0,0,1-5.08,1.256c-4.246,0-6.564-2.517-6.564-6.588,0-4.17,2.715-6.735,6.311-6.735,3.8,0,5.829,2.1,5.829,6.365,0,.445-.052.987-.052,1.113Zm.05-2.173h4.834c-.071-2.3-.866-3.034-2.273-3.034-1.256,0-2.286.616-2.561,3.034" transform="translate(-335.346 -328.53)" fill="#fff"/>
    <path id="Path_21805" data-name="Path 21805" d="M579.926,439.779v9.351h-3.6V436.178h2.446c.612,0,.984.27,1.107,1.555a4.9,4.9,0,0,1,3.6-1.679,2.688,2.688,0,0,1,.79.124v2.838h-.617a8.127,8.127,0,0,0-3.727.764" transform="translate(-441.062 -329.098)" fill="#fff"/>
  </g>
</svg>
