<svg width="22" height="23" viewBox="0 0 22 23" fill="none" xmlns="http://www.w3.org/2000/svg">
<path d="M3.30716 9.60153C3.30716 5.44834 6.56462 2.08154 10.5829 2.08154C14.6012 2.08154 17.8587 5.44834 17.8587 9.60153C17.8587 12.8062 16.083 15.8104 14.4039 17.9509C13.5541 19.034 12.706 19.9251 12.0706 20.5453C11.7524 20.8559 11.4865 21.0996 11.299 21.2667C11.2051 21.3503 11.1308 21.4148 11.0793 21.4589C11.0535 21.481 11.0334 21.498 11.0194 21.5098L11.0031 21.5235L10.9984 21.5274L10.997 21.5286C10.997 21.5286 10.9961 21.5293 10.5829 20.9955C10.1697 21.5293 10.1694 21.529 10.1694 21.529L10.1675 21.5274L10.1628 21.5235L10.1464 21.5098C10.1324 21.498 10.1123 21.481 10.0865 21.4589C10.035 21.4148 9.9607 21.3503 9.86688 21.2667C9.67931 21.0996 9.41341 20.8559 9.09528 20.5453C8.45983 19.9251 7.61171 19.034 6.76199 17.9509C5.08286 15.8104 3.30716 12.8062 3.30716 9.60153ZM10.5829 20.9955L10.1694 21.529C10.411 21.7287 10.7545 21.729 10.9961 21.5293L10.5829 20.9955ZM10.5829 20.0981C10.7406 19.9546 10.9372 19.771 11.1623 19.5513C11.767 18.961 12.5725 18.1145 13.3763 17.0898C15.0044 15.0144 16.5358 12.3217 16.5358 9.60153C16.5358 6.20347 13.8706 3.44881 10.5829 3.44881C7.29522 3.44881 4.63003 6.20347 4.63003 9.60153C4.63003 12.3217 6.16149 15.0144 7.78953 17.0898C8.59339 18.1145 9.39885 18.961 10.0036 19.5513C10.2286 19.771 10.4253 19.9546 10.5829 20.0981Z" fill="#BCBCBC"/>
<path d="M7.27576 9.60153C7.27576 7.71373 8.75643 6.18336 10.5829 6.18336C12.4094 6.18336 13.8901 7.71373 13.8901 9.60153C13.8901 11.4893 12.4094 13.0197 10.5829 13.0197C8.75643 13.0197 7.27576 11.4893 7.27576 9.60153ZM10.5829 7.55063C9.48703 7.55063 8.59862 8.46885 8.59862 9.60153C8.59862 10.7342 9.48703 11.6524 10.5829 11.6524C11.6788 11.6524 12.5672 10.7342 12.5672 9.60153C12.5672 8.46885 11.6788 7.55063 10.5829 7.55063Z" fill="#BCBCBC"/>
</svg>
