<svg id="Group_1552" data-name="Group 1552" xmlns="http://www.w3.org/2000/svg" width="27.755" height="34.872" viewBox="0 0 27.755 34.872">
  <path id="Path_21009" data-name="Path 21009" d="M56.211,35.855c0-.13-.1-.24-.151-.363a1.135,1.135,0,0,0-.175-.412l0,0-8.075-7.834A1.042,1.042,0,0,0,46.864,27c-.061-.012-.1-.069-.167-.069H29.565a1.1,1.1,0,0,0-1.1,1.1V60.7a1.1,1.1,0,0,0,1.1,1.1H55.11a1.1,1.1,0,0,0,1.1-1.1V35.867Zm-3.44-.726H47.435V29.948ZM30.665,59.595V29.133H45.959v6.734a.737.737,0,0,0,.738.734H54.01V59.595Z" transform="translate(-28.46 -26.928)" fill="#fff"/>
  <path id="Path_21010" data-name="Path 21010" d="M38.056,30.535H30.307a.738.738,0,0,0,0,1.476h7.749a.738.738,0,0,0,0-1.476Z" transform="translate(-25.048 -15.832)" fill="#fff"/>
  <path id="Path_21011" data-name="Path 21011" d="M35.341,31.433H30.307a.738.738,0,0,0,0,1.476h5.034a.738.738,0,1,0,0-1.476Z" transform="translate(-25.048 -13.07)" fill="#fff"/>
  <path id="Path_21012" data-name="Path 21012" d="M38.056,29.651H30.307a.736.736,0,1,0,0,1.472h7.749a.736.736,0,0,0,0-1.472Z" transform="translate(-25.048 -18.552)" fill="#fff"/>
  <path id="Path_21013" data-name="Path 21013" d="M38.487,32.548H36.465V30.53a.685.685,0,1,0-1.37,0v2.018H33.074a.687.687,0,0,0,0,1.374H35.1v2.018a.685.685,0,0,0,1.37,0V33.921h2.022a.687.687,0,0,0,0-1.374Z" transform="translate(-16.374 -17.955)" fill="#fff"/>
</svg>
