<svg id="Group_1551" data-name="Group 1551" xmlns="http://www.w3.org/2000/svg" width="32.207" height="37.697" viewBox="0 0 32.207 37.697">
  <g id="Group_1549" data-name="Group 1549" transform="translate(0 0)">
    <path id="Path_21005" data-name="Path 21005" d="M68.268,121.892a5.082,5.082,0,1,1,5.08-5.084A5.089,5.089,0,0,1,68.268,121.892Zm0-8.923a3.841,3.841,0,1,0,3.839,3.839A3.845,3.845,0,0,0,68.268,112.969Z" transform="translate(-58.84 -111.728)" fill="#fff"/>
    <path id="Path_21006" data-name="Path 21006" d="M75.132,141.458h-.011l-1.2-.011a1.9,1.9,0,0,1-1.883-1.912l.069-8.309-1.422-.007-.069,7.988a2.2,2.2,0,0,1-.66,1.562,2.228,2.228,0,0,1-1.57.639l-1.2-.011A1.9,1.9,0,0,1,65.3,139.48l.061-8.714a2,2,0,0,1-.909.271l-.667-.007a1.662,1.662,0,0,1-1.346-.754,2.626,2.626,0,0,1-.458-1.541l.072-9.973a4.745,4.745,0,0,1,.852-2.749,2.741,2.741,0,0,1,2.219-1.23h.018l12.6.09a3.674,3.674,0,0,1,2.237.963.621.621,0,0,1-.025.877.611.611,0,0,1-.877-.025,2.53,2.53,0,0,0-1.342-.577l-12.6-.087h-.011a1.546,1.546,0,0,0-1.216.722,3.5,3.5,0,0,0-.613,2.024l-.072,9.976a1.417,1.417,0,0,0,.231.812.459.459,0,0,0,.343.235l.664,0h0a.563.563,0,0,0,.422-.271,1.6,1.6,0,0,0,.271-.916l.069-8.5a.614.614,0,0,1,.213-.462l.224-.195a.62.62,0,0,1,1.028.469l-.148,19.574a.653.653,0,0,0,.653.664l1.2.011a.992.992,0,0,0,.7-.285.966.966,0,0,0,.289-.686l.072-8.613a.621.621,0,0,1,.621-.613h.007l2.659.022a.6.6,0,0,1,.437.184.608.608,0,0,1,.18.44l-.076,8.926a.653.653,0,0,0,.191.462.645.645,0,0,0,.465.2l1.194.011h.007a.973.973,0,0,0,.978-.967l.076-4.842a.618.618,0,0,1,.621-.61h.007a.621.621,0,0,1,.613.631l-.076,4.828a2.19,2.19,0,0,1-.657,1.562A2.214,2.214,0,0,1,75.132,141.458Z" transform="translate(-61.98 -103.76)" fill="#fff"/>
  </g>
  <g id="Group_1550" data-name="Group 1550" transform="translate(10.805 14.01)">
    <path id="Path_21007" data-name="Path 21007" d="M75.4,134.712a.638.638,0,0,1-.285-.069,22.34,22.34,0,0,1-9.7-10.972,5.754,5.754,0,0,1,.548-5.459,6.068,6.068,0,0,1,4.932-2.6,6.153,6.153,0,0,1,4.582,2.143,6.53,6.53,0,0,1,4.691-2.132,6.287,6.287,0,0,1,5.246,3,6.051,6.051,0,0,1,.328,5.964A20.35,20.35,0,0,1,75.62,134.676.648.648,0,0,1,75.4,134.712ZM70.9,116.856a4.8,4.8,0,0,0-3.908,2.06,4.531,4.531,0,0,0-.415,4.308A21.47,21.47,0,0,0,75.439,133.4a19.748,19.748,0,0,0,9.19-9.359,4.825,4.825,0,0,0-.267-4.759,5.032,5.032,0,0,0-4.193-2.417,5.626,5.626,0,0,0-4.24,2.23.552.552,0,0,1-.491.22.621.621,0,0,1-.476-.249A5.128,5.128,0,0,0,70.9,116.856Z" transform="translate(-64.975 -115.611)" fill="#fff"/>
    <path id="Path_21008" data-name="Path 21008" d="M75.219,126.258a.6.6,0,0,1-.574-.39l-2.764-6.837-1.649,3.374a.618.618,0,0,1-.559.35H65.968a.621.621,0,0,1,0-1.241h3.316l2.093-4.279a.572.572,0,0,1,.581-.35.621.621,0,0,1,.552.39l2.72,6.733,1.934-4.615a.616.616,0,0,1,.534-.379.6.6,0,0,1,.581.318l1.212,2.183h3.868a.621.621,0,1,1,0,1.241H79.126a.614.614,0,0,1-.541-.321l-.772-1.382-2.021,4.824A.616.616,0,0,1,75.219,126.258Z" transform="translate(-64.004 -112.302)" fill="#fff"/>
  </g>
</svg>
