<svg id="Group_3" data-name="Group 3" xmlns="http://www.w3.org/2000/svg" width="22.737" height="29.38" viewBox="0 0 22.737 29.38">
  <path id="Path_2818" data-name="Path 2818" d="M255.471,1774.027h13.313v.918H255.471v-.918Zm0-2.411h13.313v.918H255.471v-.918Zm3.931-7.132a.686.686,0,0,1,1.033-.9l1.867,2.129,5.222-4.666a.686.686,0,1,1,.914,1.022l-5.72,5.111a.685.685,0,0,1-.992-.043l-2.324-2.65Z" transform="translate(-250.759 -1750.845)" fill="#00b38c"/>
  <path id="Path_2819" data-name="Path 2819" d="M225.785,1683.989a3.372,3.372,0,0,1,4.328-.509q-.349.327-.707.645a2.523,2.523,0,0,0-3.261.835.452.452,0,0,1-.72,0,2.573,2.573,0,0,0-4.7,1.492,4.58,4.58,0,0,0,1.439,2.743,13.615,13.615,0,0,0,3.615,2.764,13.612,13.612,0,0,0,3.615-2.764,6.209,6.209,0,0,0,1.28-1.931q.541-.455,1.066-.928c.085,2.661-3.775,5.617-5.772,6.547a.45.45,0,0,1-.38,0h0c-1.965-.914-5.774-3.842-5.774-6.43a3.474,3.474,0,0,1,5.964-2.466Zm-9.074-7.242h2.99v1.377h-2.99a.923.923,0,0,0-.918.918v21.577a.923.923,0,0,0,.918.918h18.146a.923.923,0,0,0,.918-.918v-21.577a.923.923,0,0,0-.918-.918h-2.99v-1.377h2.99a2.3,2.3,0,0,1,2.3,2.3v21.577a2.3,2.3,0,0,1-2.3,2.3H216.71a2.3,2.3,0,0,1-2.3-2.3v-21.577a2.3,2.3,0,0,1,2.3-2.3Zm9.073-3.212a2.253,2.253,0,0,1,1.7.477,2.4,2.4,0,0,1,.706,1.7h2.754v3.443H220.619v-3.443h2.755a2.4,2.4,0,0,1,.706-1.7,2.253,2.253,0,0,1,1.7-.477Zm.73,1.45a1.033,1.033,0,1,0-.784,1.762h.106a1.033,1.033,0,0,0,.677-1.762Z" transform="translate(-214.415 -1673.535)" fill="#00b38c"/>
</svg>
