<svg id="Group_1" data-name="Group 1" xmlns="http://www.w3.org/2000/svg" width="23.103" height="28.278" viewBox="0 0 23.103 28.278">
  <path id="Path_2810" data-name="Path 2810" d="M410.5,218.692a1.416,1.416,0,1,1-1.416-1.416,1.416,1.416,0,0,1,1.416,1.416Zm0,0" transform="translate(-398.248 -217.276)" fill="#00b38c"/>
  <g id="Group_939" data-name="Group 939">
    <path id="Path_2811" data-name="Path 2811" d="M453.243,218.692a1.416,1.416,0,1,1-1.416-1.416,1.416,1.416,0,0,1,1.416,1.416Zm0,0" transform="translate(-433.483 -217.276)" fill="#00b38c"/>
    <path id="Path_2812" data-name="Path 2812" d="M376.564,223.332a3.942,3.942,0,0,0-3.448-1.99v1.4a2.576,2.576,0,0,1,2.231,3.865l-4.512,7.815a2.577,2.577,0,0,1-4.463,0l-4.512-7.815a2.576,2.576,0,0,1,2.231-3.864v-1.4a3.981,3.981,0,0,0-3.448,5.971l4.512,7.815a3.932,3.932,0,0,0,2.746,1.928v3.769c0,3.682-2.174,6.677-4.845,6.677s-4.845-3-4.845-6.677v-4.487a3.51,3.51,0,1,0-1.4,0v4.487c0,4.456,2.8,8.082,6.25,8.082s6.249-3.626,6.249-8.082v-3.769a3.932,3.932,0,0,0,2.745-1.928l4.512-7.815a3.941,3.941,0,0,0,0-3.981Zm0,0" transform="translate(-354 -220.628)" fill="#00b38c"/>
  </g>
</svg>
