<svg id="Group_1548" data-name="Group 1548" xmlns="http://www.w3.org/2000/svg" width="37.697" height="31.321" viewBox="0 0 37.697 31.321">
  <g id="Group_1547" data-name="Group 1547" transform="translate(0)">
    <path id="Path_21000" data-name="Path 21000" d="M181.827,97.473h-10a4.117,4.117,0,0,1-4.109-4.109V83.64a4.117,4.117,0,0,1,4.109-4.109.925.925,0,1,1,0,1.85,2.26,2.26,0,0,0-2.255,2.259v9.724a2.26,2.26,0,0,0,2.255,2.259h10a2.261,2.261,0,0,0,2.259-2.259V83.64a2.261,2.261,0,0,0-2.259-2.259.925.925,0,1,1,0-1.85,4.118,4.118,0,0,1,4.113,4.109v9.724A4.118,4.118,0,0,1,181.827,97.473Z" transform="translate(-148.243 -76.904)" fill="#fff"/>
    <path id="Path_21001" data-name="Path 21001" d="M169.529,86.726a.992.992,0,0,1-.99-.995V79.884a.994.994,0,1,1,1.989,0v5.848A1,1,0,0,1,169.529,86.726Z" transform="translate(-145.71 -78.889)" fill="#fff"/>
    <path id="Path_21002" data-name="Path 21002" d="M171.783,86.726a1,1,0,0,1-.995-.995V79.884a.995.995,0,0,1,1.989,0v5.848A1,1,0,0,1,171.783,86.726Z" transform="translate(-138.755 -78.889)" fill="#fff"/>
    <path id="Path_21003" data-name="Path 21003" d="M189.009,103.134H175.532a.924.924,0,0,1-.925-.925V83.027h-8.971V93.254a.927.927,0,1,1-1.854,0V82.1a.93.93,0,0,1,.929-.925h10.821a.924.924,0,0,1,.925.925v19.182h11.627V91.458a.927.927,0,0,1,1.854,0v10.751A.93.93,0,0,1,189.009,103.134Z" transform="translate(-160.422 -71.813)" fill="#fff"/>
    <path id="Path_21004" data-name="Path 21004" d="M167.25,92.643a4.291,4.291,0,1,1,4.289-4.289A4.3,4.3,0,0,1,167.25,92.643Zm0-6.589a2.3,2.3,0,1,0,2.3,2.3A2.3,2.3,0,0,0,167.25,86.054Z" transform="translate(-162.961 -62.894)" fill="#fff"/>
  </g>
</svg>
