<svg width="18" height="18" viewBox="0 0 18 18" fill="none" xmlns="http://www.w3.org/2000/svg">
<g clip-path="url(#clip0_233_536)">
<path d="M15.4578 5.48603C15.4679 5.62958 15.4679 5.77317 15.4679 5.91673C15.4679 10.2954 12.1943 15.3406 6.21114 15.3406C4.36784 15.3406 2.65551 14.7971 1.21512 13.8538C1.47702 13.8845 1.72881 13.8948 2.00078 13.8948C3.52172 13.8948 4.92183 13.3718 6.0399 12.4796C4.60959 12.4489 3.41094 11.4952 2.99796 10.1826C3.19943 10.2134 3.40086 10.2339 3.61241 10.2339C3.90451 10.2339 4.19663 10.1928 4.46858 10.1211C2.97783 9.81343 1.85974 8.48036 1.85974 6.87039V6.82939C2.29285 7.0755 2.79652 7.22932 3.33033 7.2498C2.45401 6.65503 1.87989 5.63984 1.87989 4.49133C1.87989 3.87607 2.04102 3.31207 2.32307 2.81985C3.92463 4.82973 6.332 6.14229 9.03143 6.28588C8.98108 6.03977 8.95085 5.78343 8.95085 5.52706C8.95085 3.70173 10.4013 2.21484 12.2043 2.21484C13.1411 2.21484 13.9871 2.61477 14.5814 3.26081C15.3167 3.11725 16.0218 2.84036 16.6463 2.46095C16.4046 3.23006 15.8909 3.8761 15.216 4.28625C15.8707 4.2145 16.5053 4.02988 17.0895 3.77354C16.6464 4.42981 16.0924 5.01429 15.4578 5.48603Z" fill="white"/>
</g>
<defs>
<clipPath id="clip0_233_536">
<rect width="17.7793" height="17.5011" fill="white" transform="translate(0.15683 0.0273438)"/>
</clipPath>
</defs>
</svg>
