<svg width="44" height="44" viewBox="0 0 44 44" fill="none" xmlns="http://www.w3.org/2000/svg">
<g clip-path="url(#clip0_2_6514)">
<path d="M14.6667 0C8.60017 0 3.66667 4.9335 3.66667 11C3.66667 17.0665 8.60017 22 14.6667 22C20.7332 22 25.6667 17.0665 25.6667 11C25.6667 4.9335 20.7332 0 14.6667 0ZM14.6667 18.3333C10.6223 18.3333 7.33333 15.0443 7.33333 11C7.33333 6.95567 10.6223 3.66667 14.6667 3.66667C18.711 3.66667 22 6.95567 22 11C22 15.0443 18.711 18.3333 14.6667 18.3333ZM9.16667 25.6667H20.1667V29.3333H9.16667C6.13433 29.3333 3.66667 31.801 3.66667 34.8333V44H0V34.8333C0 29.7788 4.11217 25.6667 9.16667 25.6667ZM40.8577 21.2685L33.9167 18.9677L26.9757 21.2685C25.0965 21.8918 23.8333 23.639 23.8333 25.619V31.9C23.8333 38.4432 30.6423 42.3555 32.7305 43.3987L33.8378 43.9523L34.9873 43.4903C37.1012 42.6397 44.0018 39.2883 44.0018 31.9V25.619C44.0018 23.639 42.7405 21.8918 40.8595 21.2685H40.8577ZM40.3333 31.9C40.3333 36.6337 35.8893 39.0958 33.9992 39.9282C32.3198 39.028 27.5 36.08 27.5 31.9V25.619C27.5 25.223 27.753 24.8728 28.1288 24.7482L33.9167 22.8305L39.7045 24.7482C40.0803 24.8728 40.3333 25.223 40.3333 25.619V31.9Z" fill="white"/>
</g>
<defs>
<clipPath id="clip0_2_6514">
<rect width="44" height="44" fill="white"/>
</clipPath>
</defs>
</svg>
