<svg width="44" height="44" viewBox="0 0 44 44" fill="none" xmlns="http://www.w3.org/2000/svg">
<g clip-path="url(#clip0_2_6517)">
<path d="M22 22C28.0665 22 33 17.0665 33 11C33 4.9335 28.0665 0 22 0C15.9335 0 11 4.9335 11 11C11 17.0665 15.9335 22 22 22ZM22 3.66667C26.0443 3.66667 29.3333 6.95567 29.3333 11C29.3333 15.0443 26.0443 18.3333 22 18.3333C17.9556 18.3333 14.6666 15.0443 14.6666 11C14.6666 6.95567 17.9556 3.66667 22 3.66667ZM40.3333 42.1667C40.3333 43.1805 39.5138 44 38.5 44C37.4861 44 36.6666 43.1805 36.6666 42.1667C36.6666 37.059 33.6655 32.637 29.3333 30.5727V35.1487C31.4673 35.9058 33 37.9427 33 40.3333V42.1667C33 43.1805 32.1805 44 31.1666 44C30.1528 44 29.3333 43.1805 29.3333 42.1667V40.3333C29.3333 39.3213 28.512 38.5 27.5 38.5C26.488 38.5 25.6666 39.3213 25.6666 40.3333V42.1667C25.6666 43.1805 24.8471 44 23.8333 44C22.8195 44 22 43.1805 22 42.1667V40.3333C22 37.9427 23.5326 35.9058 25.6666 35.1487V29.4653C25.0671 29.3792 24.4548 29.3333 23.8333 29.3333H20.1666C18.8925 29.3333 17.6623 29.5203 16.5 29.8687V35.3265C17.5963 35.9608 18.3333 37.1452 18.3333 38.5018C18.3333 40.5277 16.6925 42.1685 14.6666 42.1685C12.6408 42.1685 11 40.5277 11 38.5018C11 37.1452 11.737 35.9608 12.8333 35.3265V31.6433C9.51129 33.9662 7.33329 37.818 7.33329 42.1685C7.33329 43.1823 6.51379 44.0018 5.49996 44.0018C4.48613 44.0018 3.66663 43.1823 3.66663 42.1685C3.66663 33.0697 11.0678 25.6685 20.1666 25.6685H23.8333C32.9321 25.6685 40.3333 33.0678 40.3333 42.1667Z" fill="white"/>
</g>
<defs>
<clipPath id="clip0_2_6517">
<rect width="44" height="44" fill="white"/>
</clipPath>
</defs>
</svg>
