<svg width="44" height="44" viewBox="0 0 44 44" fill="none" xmlns="http://www.w3.org/2000/svg">
<path d="M14.6658 0C8.59925 0 3.66575 4.9335 3.66575 11C3.66575 17.0665 8.59925 22 14.6658 22C20.7323 22 25.6658 17.0665 25.6658 11C25.6658 4.9335 20.7323 0 14.6658 0ZM14.6658 18.3333C10.6214 18.3333 7.33242 15.0443 7.33242 11C7.33242 6.95567 10.6214 3.66667 14.6658 3.66667C18.7101 3.66667 21.9991 6.95567 21.9991 11C21.9991 15.0443 18.7101 18.3333 14.6658 18.3333ZM9.16575 25.6667H20.1658V29.3333H9.16575C6.13342 29.3333 3.66575 31.801 3.66575 34.8333V44H-0.000915527V34.8333C-0.000915527 29.7788 4.11125 25.6667 9.16575 25.6667ZM40.8567 21.2685L33.9157 18.9677L26.9747 21.2685C25.0956 21.8918 23.8324 23.639 23.8324 25.619V31.9C23.8324 38.4432 30.6414 42.3555 32.7296 43.3987L33.8369 43.9523L34.9864 43.4903C37.1003 42.6397 44.0009 39.2883 44.0009 31.9V25.619C44.0009 23.639 42.7396 21.8918 40.8586 21.2685H40.8567ZM40.3324 31.9C40.3324 36.6337 35.8884 39.0958 33.9982 39.9282C32.3189 39.028 27.4991 36.08 27.4991 31.9V25.619C27.4991 25.223 27.7521 24.8728 28.1279 24.7482L33.9157 22.8305L39.7036 24.7482C40.0794 24.8728 40.3324 25.223 40.3324 25.619V31.9Z" fill="white"/>
</svg>
