<svg width="37" height="44" viewBox="0 0 37 44" fill="none" xmlns="http://www.w3.org/2000/svg">
<path d="M18.6667 21.999C24.7332 21.999 29.6667 17.0655 29.6667 10.999C29.6667 4.93252 24.7332 -0.000976562 18.6667 -0.000976562C12.6002 -0.000976562 7.66668 4.93252 7.66668 10.999C7.66668 17.0655 12.6002 21.999 18.6667 21.999ZM18.6667 3.66569C22.711 3.66569 26 6.95469 26 10.999C26 15.0434 22.711 18.3324 18.6667 18.3324C14.6223 18.3324 11.3333 15.0434 11.3333 10.999C11.3333 6.95469 14.6223 3.66569 18.6667 3.66569ZM37 42.1657C37 43.1795 36.1805 43.999 35.1667 43.999C34.1528 43.999 33.3333 43.1795 33.3333 42.1657C33.3333 37.058 30.3322 32.636 26 30.5717V35.1477C28.134 35.9049 29.6667 37.9417 29.6667 40.3324V42.1657C29.6667 43.1795 28.8472 43.999 27.8333 43.999C26.8195 43.999 26 43.1795 26 42.1657V40.3324C26 39.3204 25.1787 38.499 24.1667 38.499C23.1547 38.499 22.3333 39.3204 22.3333 40.3324V42.1657C22.3333 43.1795 21.5138 43.999 20.5 43.999C19.4862 43.999 18.6667 43.1795 18.6667 42.1657V40.3324C18.6667 37.9417 20.1993 35.9049 22.3333 35.1477V29.4644C21.7338 29.3782 21.1215 29.3324 20.5 29.3324H16.8333C15.5592 29.3324 14.329 29.5194 13.1667 29.8677V35.3255C14.263 35.9599 15 37.1442 15 38.5009C15 40.5267 13.3592 42.1675 11.3333 42.1675C9.30751 42.1675 7.66668 40.5267 7.66668 38.5009C7.66668 37.1442 8.40368 35.9599 9.50001 35.3255V31.6424C6.17801 33.9652 4.00001 37.817 4.00001 42.1675C4.00001 43.1814 3.18051 44.0009 2.16668 44.0009C1.15284 44.0009 0.333344 43.1814 0.333344 42.1675C0.333344 33.0687 7.73451 25.6675 16.8333 25.6675H20.5C29.5988 25.6675 37 33.0669 37 42.1657Z" fill="white"/>
</svg>
