<svg width="45" height="28" viewBox="0 0 45 28" fill="none" xmlns="http://www.w3.org/2000/svg">
<path d="M42.3222 4.43614C41.081 3.8471 39.6217 3.9712 38.5125 4.76474C38.441 4.81543 35.1318 7.98959 35.1318 7.98959C34.7303 3.52025 30.7887 0 26 0H9.50001C4.44551 0 0.333344 3.92051 0.333344 8.73944V19.2268C0.333344 24.0457 4.44551 27.9662 9.50001 27.9662H26C30.8107 27.9662 34.7688 24.4145 35.1373 19.9154C35.1373 19.9154 38.4428 23.0546 38.5125 23.1053C39.1578 23.5668 39.9223 23.8027 40.6923 23.8027C41.246 23.8027 41.8033 23.6804 42.3222 23.4339C43.5615 22.8431 44.3333 21.6528 44.3333 20.3314V7.53864C44.3333 6.21723 43.5633 5.02692 42.3222 4.43614ZM31.5 19.2268C31.5 22.1178 29.0323 24.4704 26 24.4704H9.50001C6.46768 24.4704 4.00001 22.1178 4.00001 19.2268V8.73944C4.00001 5.84843 6.46768 3.49577 9.50001 3.49577H26C29.0323 3.49577 31.5 5.84843 31.5 8.73944V19.2268ZM35.1667 15.0021V12.9239L40.6667 7.63128L40.7125 20.2842L35.1667 15.0021ZM25.0833 13.9831C25.0833 14.9479 24.262 15.731 23.25 15.731H19.5833V19.2268C19.5833 20.1916 18.762 20.9746 17.75 20.9746C16.738 20.9746 15.9167 20.1916 15.9167 19.2268V15.731H12.25C11.238 15.731 10.4167 14.9479 10.4167 13.9831C10.4167 13.0183 11.238 12.2352 12.25 12.2352H15.9167V8.73944C15.9167 7.7746 16.738 6.99155 17.75 6.99155C18.762 6.99155 19.5833 7.7746 19.5833 8.73944V12.2352H23.25C24.262 12.2352 25.0833 13.0183 25.0833 13.9831Z" fill="white"/>
</svg>
