<svg version="1.1" id="Layer_1" xmlns="http://www.w3.org/2000/svg" x="0" y="0" viewBox="0 0 58.4 72.8" xml:space="preserve"><style>.st0{fill:#00b48d}.st1{enable-background:new}.st2{fill:#144d92}</style><path id="Path_21806" class="st0" d="M58.3 19.9c0 3.2-.1 6.4 0 9.6.2 1.9-.8 3.8-2.5 4.7-2.4 1.2-4.8 2.3-7.3 3.2-1.2.5-1.4-.5-1.4-1.4 0-3.2-.1-6.4 0-9.6 0-1.2-.4-1.7-1.5-1.9-10.8-2.1-22-2.1-32.8 0-1.3.3-1.7.8-1.7 2.1.1 3.1 0 6.3 0 9.5 0 1.3-.5 1.8-1.8 1.3-2.3-1-4.7-1.9-7-3.1-1.7-1-2.6-2.8-2.5-4.7.1-6.2.1-12.5 0-18.7 0-2.6.9-4.5 3.1-5.5C6.1 3.9 9.5 2.7 13 1.9c11.3-2.3 23.1-2.2 34.3.5 2.6.7 5.1 1.6 7.5 2.8 2.3.9 3.7 3.3 3.4 5.8 0 2.8.1 5.8.1 8.9zm-11.2 3c0-2 .1-3.9 0-5.8-.2-1.2.5-2.3 1.7-2.5h.1c2.1-.7 4.2-1.6 6.1-2.8 2.2-1.4 2.2-3.3 0-4.7-2-1.3-4.2-2.2-6.5-2.9-11.7-3-23.8-3.2-35.4-.7-3.1.7-6.1 1.8-9 3.2-3.1 1.6-3 3.8 0 5.6 1.5.9 3.2 1.7 5 2.1 1.8.4 2.3 1.3 2.1 3-.1 1.8 0 3.6 0 5.5 11.9-2.5 24.1-2.5 35.9 0zM9 35.5l.4-.4V17.2c-.1-.4-.3-.7-.6-.9-2.3-1-4.6-1.9-6.9-2.9 0 .1-.1.2-.1.3 0 5.4-.1 10.9 0 16.3.2 1 .7 1.8 1.4 2.4 1.9 1.2 3.9 2.1 5.8 3.1zm47.6-22.2c-2.3 1-4.3 1.9-6.5 2.7-.8.2-1.3.9-1.2 1.7v17.7c2.6-.8 5-1.6 6.8-3.5.5-.5.8-1.1.9-1.8V13.3z"/><g class="st1"><path class="st2" d="M19.3 35.6c.1-.4.2-.8.4-1.1.2-.3.4-.6.7-.8.3-.2.6-.4.9-.5.3-.1.7-.2 1.1-.2.4 0 .8.1 1.1.2s.6.3.8.5c.2.2.4.4.5.7.1.3.2.6.2.9 0 .3 0 .5-.1.7s-.1.4-.3.5c-.1.2-.3.3-.4.4l-.6.3c1 .3 1.5 1 1.5 2 0 .4-.1.8-.2 1.2-.2.3-.4.6-.7.8-.3.2-.6.4-1 .5-.4.1-.7.2-1.1.2-.4 0-.8 0-1.1-.1-.3-.1-.6-.2-.9-.4-.2-.2-.5-.4-.6-.7-.2-.3-.3-.6-.5-1l.7-.3c.2-.1.4-.1.5-.1.2 0 .3.1.4.3.1.2.2.3.3.4l.3.3c.1.1.2.2.4.2.1.1.3.1.5.1s.4 0 .6-.1c.2-.1.3-.2.4-.3s.2-.3.3-.4c.1-.2.1-.3.1-.5s0-.4-.1-.5c0-.2-.1-.3-.2-.4-.1-.1-.3-.2-.6-.3-.3-.1-.6-.1-1-.1v-1.2c.4 0 .7 0 .9-.1s.4-.1.5-.3.2-.2.3-.4c.1-.2.1-.3.1-.5 0-.4-.1-.7-.3-.9-.2-.2-.5-.3-.8-.3-.2 0-.3 0-.4.1-.1 0-.3.1-.4.2l-.3.3c-.2.1-.2.2-.2.4-.1.2-.2.3-.3.4-.1.1-.3.1-.5 0l-.9-.1zM28.9 36.2l-.3.3c.2-.1.3-.1.5-.2.2 0 .4-.1.6-.1.3 0 .6.1.9.2.3.1.6.3.8.5.2.2.4.5.6.8.1.3.2.7.2 1.1 0 .4-.1.8-.2 1.1-.2.4-.4.7-.6.9-.3.3-.6.5-1 .6-.4.2-.8.2-1.3.2s-.9-.1-1.3-.2c-.4-.2-.7-.4-1-.6-.3-.3-.5-.6-.6-1-.1-.4-.2-.8-.2-1.3 0-.4.1-.8.2-1.3.2-.4.4-.9.8-1.3l2-2.7c.1-.1.2-.2.4-.3.2-.1.3-.1.5-.1h1.5l-2.5 3.4zm.2 4.4c.2 0 .4 0 .6-.1.2-.1.3-.2.5-.3s.2-.3.3-.5c.1-.2.1-.4.1-.6 0-.2 0-.4-.1-.6s-.2-.3-.3-.5c-.1-.1-.3-.2-.5-.3-.2-.1-.4-.1-.6-.1-.2 0-.4 0-.6.1-.2.1-.3.2-.5.3s-.2.3-.3.5c-.1.2-.1.4-.1.6 0 .2 0 .4.1.6.1.2.1.3.3.5.1.1.3.2.4.3.3 0 .5.1.7.1zM39.3 37.4c0 .8-.1 1.4-.2 2s-.4 1-.7 1.4c-.3.4-.6.6-1 .8s-.8.3-1.3.3-.9-.1-1.3-.3c-.4-.2-.7-.5-1-.8-.3-.4-.5-.8-.7-1.4-.2-.6-.2-1.2-.2-2s.1-1.4.2-2c.2-.6.4-1 .7-1.4.3-.4.6-.6 1-.8.4-.2.8-.3 1.3-.3s.9.1 1.3.3.7.5 1 .8.5.8.7 1.4.2 1.3.2 2zm-1.7 0c0-.6 0-1.1-.1-1.5s-.2-.7-.3-.9c-.1-.2-.3-.4-.5-.5-.2-.1-.4-.1-.6-.1-.2 0-.4 0-.6.1-.2.1-.3.3-.5.5-.1.2-.2.5-.3.9s-.1.9-.1 1.5 0 1.1.1 1.5c.1.4.2.7.3.9.1.2.3.4.5.5.2.1.4.1.6.1.2 0 .4 0 .6-.1.2-.1.3-.3.5-.5.1-.2.3-.5.3-.9 0-.3.1-.8.1-1.5z"/></g><g class="st1"><path class="st2" d="M7.2 48.5v2.4h3.1v1.4H7.2v3.5H5.4v-8.7h5.5v1.4H7.2zM11 50.5c.4-.3.8-.6 1.2-.7.4-.2.9-.2 1.4-.2.4 0 .7.1 1 .2s.5.3.7.5c.2.2.4.5.5.8.1.3.2.6.2 1V56h-.8c-.2 0-.3 0-.4-.1-.1 0-.1-.1-.2-.3l-.1-.4c-.2.1-.3.3-.5.4-.1.1-.3.2-.5.3-.2.1-.3.1-.5.2-.2 0-.4.1-.6.1-.3 0-.5 0-.7-.1l-.6-.3c-.2-.1-.3-.3-.4-.5-.1-.2-.1-.5-.1-.7 0-.2.1-.5.2-.7.1-.2.3-.4.6-.6.3-.2.7-.3 1.1-.5.5-.1 1.1-.2 1.8-.2v-.3c0-.4-.1-.7-.2-.9-.2-.2-.4-.3-.7-.3-.2 0-.4 0-.6.1-.2.1-.3.1-.4.2-.1.1-.2.1-.3.2s-.2.1-.3.1c-.1 0-.2 0-.3-.1l-.2-.2-.3-.9zm3.4 2.7c-.4 0-.7.1-1 .1-.3.1-.5.1-.6.2s-.3.2-.3.3c-.1.1-.1.2-.1.3 0 .2.1.4.2.5.1.1.3.2.6.2s.5 0 .7-.1.4-.3.6-.5v-1zM21.8 51c0 .1-.1.1-.1.1s-.1.1-.2.1-.2 0-.2-.1c-.1 0-.2-.1-.3-.2-.1-.1-.2-.1-.3-.1-.1 0-.3-.1-.5-.1s-.5 0-.6.1-.3.2-.5.4l-.3.6c-.1.2-.1.5-.1.8 0 .6.1 1.1.4 1.5.3.3.6.5 1 .5h.4c.1 0 .2-.1.3-.1s.2-.1.2-.1.1-.1.2-.1.1-.1.2-.1h.2c.1 0 .2 0 .3.1l.5.6c-.2.2-.4.4-.6.5l-.6.3c-.2.1-.4.1-.7.2h-.7c-.4 0-.7-.1-1.1-.2s-.6-.3-.9-.6c-.3-.3-.5-.6-.6-1-.1-.4-.2-.8-.2-1.4 0-.5.1-.9.2-1.3s.3-.7.6-1c.3-.3.6-.5 1-.7.4-.2.8-.2 1.3-.2s.9.1 1.2.2c.4.2.7.4 1 .7l-.5.6zM25 47.9c0 .1 0 .3-.1.4s-.1.2-.2.3c-.1.1-.2.2-.3.2-.1.1-.3.1-.4.1-.1 0-.3 0-.4-.1-.1-.1-.2-.1-.3-.2-.1-.1-.2-.2-.2-.3-.1-.2-.1-.3-.1-.4 0-.1 0-.3.1-.4.1-.1.1-.2.2-.3.1-.1.2-.2.3-.2s.3-.1.4-.1c.1 0 .3 0 .4.1.1.1.2.1.3.2.1.1.2.2.2.3s.1.2.1.4zm-.2 1.7v6.2h-1.7v-6.2h1.7zM27.9 46.9v8.9h-1.7v-8.9h1.7zM31.2 47.9c0 .1 0 .3-.1.4s-.1.2-.2.3c-.1.1-.2.2-.3.2-.1.1-.3.1-.4.1-.1 0-.3 0-.4-.1-.1-.1-.2-.1-.3-.2-.1-.1-.2-.2-.2-.3-.1-.1-.1-.3-.1-.4 0-.1 0-.3.1-.4.1-.1.1-.2.2-.3.1-.1.2-.2.3-.2s.3-.1.4-.1c.1 0 .3 0 .4.1.1.1.2.1.3.2s.2.2.2.3.1.2.1.4zm-.2 1.7v6.2h-1.7v-6.2H31zM38.8 55.8h-1.7v-5h-2.7V54c0 .2 0 .3.1.4.1.1.2.2.4.2h.2c.1 0 .1 0 .1-.1 0 0 .1 0 .1-.1h.2l.1.1.5.8c-.2.2-.5.3-.8.4s-.6.1-.9.1c-.3 0-.5 0-.7-.1s-.4-.2-.5-.4c-.1-.2-.3-.3-.3-.6-.1-.2-.1-.5-.1-.7v-3.3h-.6c-.1 0-.2 0-.2-.1-.1-.1-.1-.1-.1-.3v-.6l1-.2.3-1.6c0-.2.2-.3.4-.3h.9v1.9h4.4v6.3zm.3-8c0 .1 0 .3-.1.4-.1.1-.1.2-.2.3s-.2.2-.3.2-.3.1-.4.1c-.1 0-.3 0-.4-.1s-.2-.1-.3-.2-.2-.2-.2-.3-.1-.3-.1-.4c0-.1 0-.3.1-.4s.1-.2.2-.3.2-.2.3-.2c.1-.1.3-.1.4-.1.1 0 .3 0 .4.1.1.1.2.1.3.2s.2.2.2.3c.1.2.1.3.1.4zM41.6 53c.1.6.2 1 .5 1.3.3.3.6.4 1.1.4.2 0 .4 0 .6-.1.2-.1.3-.1.4-.2.1-.1.2-.1.3-.2.1-.1.2-.1.3-.1.1 0 .2 0 .3.1l.5.6c-.2.2-.4.4-.6.5-.2.1-.4.2-.7.3-.2.1-.5.1-.7.2s-.5 0-.7 0c-.4 0-.8-.1-1.2-.2s-.7-.4-1-.6c-.3-.3-.5-.6-.7-1s-.2-.9-.2-1.4c0-.4.1-.8.2-1.2s.3-.7.6-1c.3-.3.6-.5.9-.7s.8-.2 1.3-.2c.4 0 .8.1 1.1.2s.6.3.9.5.4.5.6.9c.1.4.2.7.2 1.2v.3c0 .1 0 .1-.1.2l-.1.1H41.6zm2.6-1c0-.2 0-.3-.1-.5 0-.2-.1-.3-.2-.4-.1-.1-.2-.2-.4-.3-.2-.1-.3-.1-.5-.1-.4 0-.7.1-.9.3-.2.2-.4.5-.4 1h2.5zM50.5 50.9c0 .1-.1.1-.1.1h-.2c-.1 0-.2 0-.2-.1s-.2-.1-.3-.1-.2-.1-.4-.1c-.1 0-.3-.1-.5-.1-.3 0-.5.1-.6.2-.1.2-.2.3-.2.5 0 .1 0 .2.1.3.1.1.2.2.3.2.1.1.3.1.5.2s.4.1.5.2c.2.1.4.1.5.2.2.1.3.2.5.3s.2.3.3.5.1.4.1.6c0 .3-.1.6-.2.8-.1.3-.3.5-.5.7-.2.2-.5.3-.8.4-.3.1-.7.2-1.1.2-.2 0-.4 0-.6-.1s-.4-.1-.6-.2-.4-.2-.5-.2-.3-.2-.4-.3l.4-.6c0-.1.1-.1.2-.2s.2-.1.3-.1c.1 0 .2 0 .3.1.1 0 .2.1.3.2.1.1.2.1.4.2.1.1.3.1.5.1s.3 0 .4-.1c.1 0 .2-.1.3-.1l.2-.2c0-.1.1-.2.1-.2 0-.1 0-.2-.1-.3-.1-.1-.2-.2-.3-.2-.1-.1-.3-.1-.5-.2s-.4-.1-.5-.2c-.2-.1-.4-.1-.5-.2s-.3-.2-.5-.3c-.1-.1-.3-.3-.3-.5-.1-.2-.1-.4-.1-.7 0-.3.1-.5.2-.7.1-.2.3-.4.5-.6s.4-.3.7-.4c.3-.1.6-.2 1-.2s.8.1 1.2.2c.4.1.7.3.9.6l-.7.4z"/></g><g class="st1"><path class="st2" d="M23.8 62.5h-2.5v7.3h-1.8v-7.3H17V61h6.9v1.5zM26 63.5c.5 0 .9.1 1.3.2s.7.4 1 .6c.3.3.5.6.6 1 .1.4.2.8.2 1.3s-.1.9-.2 1.3-.4.7-.6 1c-.3.3-.6.5-1 .6-.4.1-.8.2-1.3.2s-.9-.1-1.3-.2-.7-.4-1-.6c-.3-.3-.5-.6-.6-1-.1-.4-.2-.8-.2-1.3s.1-.9.2-1.3.4-.7.6-1c.3-.3.6-.5 1-.6.4-.1.8-.2 1.3-.2zm0 5.2c.5 0 .8-.2 1-.5s.3-.8.3-1.5c0-.6-.1-1.1-.3-1.4s-.6-.5-1-.5c-.5 0-.8.2-1.1.5-.2.3-.3.8-.3 1.4 0 .6.1 1.1.3 1.5.2.3.6.5 1.1.5zM35.5 63.6v6.2h-1c-.2 0-.3-.1-.4-.3l-.1-.4c-.1.1-.3.2-.4.3-.1.1-.3.2-.4.3-.2.1-.3.1-.5.2s-.4.1-.6.1c-.3 0-.6-.1-.9-.2s-.5-.3-.7-.5c-.2-.2-.3-.5-.4-.7-.1-.3-.1-.6-.1-.9v-3.9h1.7v3.9c0 .3.1.6.2.8.2.2.4.3.7.3.2 0 .4-.1.7-.2.2-.1.4-.2.6-.4v-4.4h1.6zM38.5 64.6c.2-.4.4-.6.7-.8s.6-.3.9-.3c.3 0 .5.1.7.2l-.1 1.2c0 .1-.1.1-.1.2h-.8c-.2 0-.3 0-.4.1s-.2.1-.3.2c-.1.1-.2.2-.2.3-.1.1-.1.2-.2.4v3.8H37v-6.2h1c.2 0 .3 0 .3.1.1.1.1.2.1.3l.1.5z"/></g><text transform="translate(40.842 37.804)" class="st2" font-size="7" font-family="Lato-Heavy">0</text><g class="st1"><path class="st0" d="M29 7.4l-3.8 9.4h-1.8l-3.8-9.4h1.6c.2 0 .3 0 .4.1.1.1.2.2.2.3l2 5.4c.1.2.2.4.2.7.1.2.1.5.2.8.1-.3.1-.5.2-.8.1-.2.1-.5.2-.7l2-5.4c0-.1.1-.2.2-.3.1-.1.2-.1.4-.1H29zM37.4 16.8h-1.8c-.3 0-.6-.1-.7-.4l-1.8-2.9-.2-.2s-.2-.1-.4-.1h-.7v3.6h-2V7.4h3c.7 0 1.2.1 1.7.2s.9.3 1.2.6c.3.2.5.5.6.8s.2.7.2 1.1c0 .3 0 .6-.1.9-.1.3-.2.5-.4.8l-.6.6c-.2.2-.5.3-.8.4.1.1.2.2.4.3l.3.3 2.1 3.4zm-4.6-5c.3 0 .6 0 .8-.1l.6-.3c.1-.1.3-.3.3-.5s.1-.4.1-.6c0-.4-.1-.8-.4-1s-.7-.4-1.4-.4h-1v3h1z"/></g></svg>